<svg width="377" height="159" viewBox="0 0 377 159" fill="none" xmlns="http://www.w3.org/2000/svg">
<g filter="url(#filter0_ddiiiii_27_1848)">
<rect x="16" y="12" width="344.7" height="125" rx="62.5" fill="url(#paint0_linear_27_1848)" shape-rendering="crispEdges"/>
<g filter="url(#filter1_dddd_27_1848)">
<rect x="22" y="18" width="332.7" height="113" rx="56.5" fill="url(#paint1_linear_27_1848)"/>
<rect x="22.5" y="18.5" width="331.7" height="112" rx="56" stroke="white" stroke-opacity="0.1"/>
<rect x="22.5" y="18.5" width="331.7" height="112" rx="56" stroke="url(#paint2_linear_27_1848)"/>
<path d="M90.9945 76.4187C91.0272 73.9409 91.7013 71.5114 92.9542 69.3563C94.207 67.2012 95.9979 65.3905 98.1601 64.0926C96.7865 62.1774 94.9744 60.6012 92.8677 59.4893C90.761 58.3774 88.4178 57.7603 86.0241 57.6872C80.9179 57.1639 75.9678 60.6702 73.3657 60.6702C70.7134 60.6702 66.7072 57.7392 62.3932 57.8258C59.6028 57.9138 56.8834 58.706 54.4998 60.1252C52.1162 61.5444 50.1499 63.5422 48.7923 65.9239C42.9116 75.8643 47.2981 90.4732 52.9313 98.5083C55.7498 102.443 59.0437 106.838 63.3539 106.682C67.5715 106.511 69.1468 104.056 74.2379 104.056C79.2817 104.056 80.7596 106.682 85.1571 106.583C89.6829 106.511 92.5344 102.631 95.254 98.659C97.279 95.8556 98.8373 92.7571 99.8711 89.4784C97.2417 88.3927 94.9979 86.5753 93.4194 84.2529C91.8409 81.9306 90.9975 79.2059 90.9945 76.4187Z" fill="black"/>
<path d="M82.6883 52.4029C85.156 49.5108 86.3717 45.7935 86.0773 42.0404C82.3073 42.427 78.8249 44.1861 76.3239 46.9672C75.1011 48.3259 74.1645 49.9065 73.5678 51.6187C72.9711 53.331 72.7259 55.1413 72.8462 56.9461C74.7318 56.965 76.5973 56.566 78.3022 55.779C80.007 54.9921 81.5067 53.8377 82.6883 52.4029Z" fill="black"/>
<path d="M123.141 59.4125V43.982H128.381C129.906 43.982 131.211 44.2885 132.295 44.9016C133.385 45.5075 134.219 46.3844 134.797 47.5322C135.374 48.6728 135.663 50.0522 135.663 51.6705V51.6919C135.663 53.3101 135.374 54.6967 134.797 55.8516C134.219 57.0065 133.389 57.8905 132.305 58.5035C131.222 59.1095 129.914 59.4125 128.381 59.4125H123.141ZM125.066 57.6802H128.252C129.415 57.6802 130.398 57.4485 131.204 56.9851C132.017 56.5146 132.633 55.8373 133.054 54.9533C133.482 54.0622 133.695 52.9822 133.695 51.7133V51.6919C133.695 50.4229 133.482 49.3429 133.054 48.4518C132.633 47.5607 132.017 46.8834 131.204 46.42C130.391 45.9495 129.407 45.7143 128.252 45.7143H125.066V57.6802ZM143.25 59.6263C142.188 59.6263 141.265 59.3875 140.481 58.9099C139.696 58.4323 139.087 57.755 138.652 56.8781C138.224 56.0013 138.01 54.9605 138.01 53.7557V53.7343C138.01 52.5295 138.224 51.4887 138.652 50.6118C139.087 49.735 139.696 49.0613 140.481 48.5908C141.265 48.1203 142.184 47.885 143.239 47.885C144.302 47.885 145.225 48.1203 146.009 48.5908C146.793 49.0613 147.399 49.735 147.827 50.6118C148.262 51.4887 148.479 52.5295 148.479 53.7343V53.7557C148.479 54.9605 148.262 56.0013 147.827 56.8781C147.399 57.755 146.793 58.4323 146.009 58.9099C145.232 59.3875 144.312 59.6263 143.25 59.6263ZM143.25 57.9796C143.942 57.9796 144.533 57.812 145.025 57.477C145.524 57.1419 145.906 56.6607 146.169 56.0334C146.44 55.406 146.576 54.6468 146.576 53.7557V53.7343C146.576 52.8432 146.44 52.084 146.169 51.4566C145.906 50.8293 145.524 50.3516 145.025 50.0237C144.526 49.6958 143.931 49.5318 143.239 49.5318C142.555 49.5318 141.963 49.6993 141.464 50.0344C140.972 50.3623 140.591 50.84 140.32 51.4673C140.049 52.0875 139.914 52.8432 139.914 53.7343V53.7557C139.914 54.6468 140.049 55.406 140.32 56.0334C140.591 56.6607 140.972 57.1419 141.464 57.477C141.963 57.812 142.559 57.9796 143.25 57.9796ZM153.083 59.4125L149.907 48.0882H151.768L154.013 57.2203H154.12L156.665 48.0882H158.44L160.996 57.2203H161.103L163.338 48.0882H165.188L162.023 59.4125H160.141L157.595 50.6546H157.489L154.954 59.4125H153.083ZM167.61 59.4125V48.0882H169.471V49.7457H169.578C169.87 49.1825 170.294 48.7334 170.85 48.3983C171.413 48.0561 172.119 47.885 172.967 47.885C174.222 47.885 175.192 48.2557 175.876 48.9971C176.56 49.7314 176.903 50.758 176.903 52.0768V59.4125H175.042V52.4618C175.042 51.4923 174.824 50.7615 174.39 50.2697C173.962 49.7778 173.306 49.5318 172.422 49.5318C171.823 49.5318 171.303 49.6637 170.861 49.9275C170.419 50.1841 170.077 50.5512 169.834 51.0289C169.592 51.5065 169.471 52.0733 169.471 52.7291V59.4125H167.61ZM180.277 59.4125V43.6505H182.137V59.4125H180.277ZM189.639 59.6263C188.577 59.6263 187.653 59.3875 186.869 58.9099C186.085 58.4323 185.476 57.755 185.041 56.8781C184.613 56.0013 184.399 54.9605 184.399 53.7557V53.7343C184.399 52.5295 184.613 51.4887 185.041 50.6118C185.476 49.735 186.085 49.0613 186.869 48.5908C187.653 48.1203 188.573 47.885 189.628 47.885C190.69 47.885 191.613 48.1203 192.398 48.5908C193.182 49.0613 193.788 49.735 194.216 50.6118C194.65 51.4887 194.868 52.5295 194.868 53.7343V53.7557C194.868 54.9605 194.65 56.0013 194.216 56.8781C193.788 57.755 193.182 58.4323 192.398 58.9099C191.621 59.3875 190.701 59.6263 189.639 59.6263ZM189.639 57.9796C190.33 57.9796 190.922 57.812 191.414 57.477C191.913 57.1419 192.294 56.6607 192.558 56.0334C192.829 55.406 192.964 54.6468 192.964 53.7557V53.7343C192.964 52.8432 192.829 52.084 192.558 51.4566C192.294 50.8293 191.913 50.3516 191.414 50.0237C190.915 49.6958 190.32 49.5318 189.628 49.5318C188.944 49.5318 188.352 49.6993 187.853 50.0344C187.361 50.3623 186.98 50.84 186.709 51.4673C186.438 52.0875 186.302 52.8432 186.302 53.7343V53.7557C186.302 54.6468 186.438 55.406 186.709 56.0334C186.98 56.6607 187.361 57.1419 187.853 57.477C188.352 57.812 188.947 57.9796 189.639 57.9796ZM200.894 59.6263C200.159 59.6263 199.507 59.4873 198.937 59.2093C198.374 58.9313 197.928 58.5392 197.6 58.033C197.279 57.5198 197.119 56.9209 197.119 56.2365V56.2152C197.119 55.5522 197.279 54.9854 197.6 54.5149C197.928 54.0373 198.399 53.663 199.012 53.3921C199.625 53.1141 200.366 52.9501 201.236 52.9002L205.406 52.6543V54.1193L201.45 54.3652C200.644 54.408 200.038 54.5862 199.632 54.8999C199.226 55.2135 199.022 55.6448 199.022 56.1938V56.2152C199.022 56.7712 199.233 57.2096 199.653 57.5304C200.081 57.8512 200.63 58.0116 201.3 58.0116C201.906 58.0116 202.448 57.8869 202.926 57.6374C203.403 57.3879 203.781 57.0492 204.059 56.6215C204.337 56.1866 204.476 55.6983 204.476 55.1565V51.7133C204.476 51.0218 204.262 50.4871 203.834 50.1093C203.407 49.7243 202.783 49.5318 201.963 49.5318C201.264 49.5318 200.694 49.6708 200.252 49.9489C199.81 50.2269 199.529 50.6047 199.407 51.0823L199.386 51.1465H197.557L197.568 51.0503C197.647 50.4443 197.875 49.9025 198.253 49.4249C198.637 48.9472 199.147 48.573 199.782 48.3021C200.423 48.024 201.165 47.885 202.006 47.885C202.918 47.885 203.695 48.0383 204.337 48.3448C204.986 48.6443 205.481 49.0756 205.823 49.6387C206.166 50.1948 206.337 50.8578 206.337 51.6277V59.4125H204.476V57.6588H204.369C204.148 58.0651 203.859 58.4144 203.503 58.7067C203.154 58.999 202.758 59.2271 202.316 59.3911C201.874 59.5479 201.4 59.6263 200.894 59.6263ZM213.763 59.6263C212.808 59.6263 211.971 59.384 211.25 58.8992C210.53 58.4144 209.971 57.7336 209.572 56.8568C209.18 55.9728 208.984 54.9391 208.984 53.7557V53.745C208.984 52.5545 209.183 51.5208 209.582 50.6439C209.982 49.7671 210.538 49.0898 211.25 48.6122C211.963 48.1274 212.797 47.885 213.753 47.885C214.28 47.885 214.772 47.9706 215.228 48.1417C215.692 48.3056 216.102 48.5409 216.458 48.8474C216.822 49.154 217.11 49.5176 217.324 49.9382H217.431V43.6505H219.292V59.4125H217.431V57.5518H217.324C217.096 57.9796 216.804 58.3467 216.447 58.6532C216.098 58.9598 215.695 59.1986 215.239 59.3697C214.79 59.5408 214.298 59.6263 213.763 59.6263ZM214.159 57.9796C214.822 57.9796 215.4 57.8085 215.891 57.4663C216.39 57.117 216.775 56.6251 217.046 55.9906C217.324 55.3561 217.463 54.6112 217.463 53.7557V53.745C217.463 52.8824 217.324 52.1374 217.046 51.5101C216.768 50.8827 216.383 50.398 215.891 50.0558C215.4 49.7065 214.822 49.5318 214.159 49.5318C213.482 49.5318 212.897 49.7029 212.405 50.0451C211.921 50.3802 211.546 50.8614 211.283 51.4887C211.019 52.116 210.887 52.8681 210.887 53.745V53.7557C210.887 54.6254 211.019 55.3775 211.283 56.012C211.546 56.6465 211.921 57.1348 212.405 57.477C212.897 57.812 213.482 57.9796 214.159 57.9796ZM232.541 59.6263C231.479 59.6263 230.556 59.3875 229.772 58.9099C228.988 58.4323 228.378 57.755 227.943 56.8781C227.516 56.0013 227.302 54.9605 227.302 53.7557V53.7343C227.302 52.5295 227.516 51.4887 227.943 50.6118C228.378 49.735 228.988 49.0613 229.772 48.5908C230.556 48.1203 231.476 47.885 232.531 47.885C233.593 47.885 234.516 48.1203 235.3 48.5908C236.084 49.0613 236.69 49.735 237.118 50.6118C237.553 51.4887 237.77 52.5295 237.77 53.7343V53.7557C237.77 54.9605 237.553 56.0013 237.118 56.8781C236.69 57.755 236.084 58.4323 235.3 58.9099C234.523 59.3875 233.604 59.6263 232.541 59.6263ZM232.541 57.9796C233.233 57.9796 233.825 57.812 234.316 57.477C234.816 57.1419 235.197 56.6607 235.461 56.0334C235.732 55.406 235.867 54.6468 235.867 53.7557V53.7343C235.867 52.8432 235.732 52.084 235.461 51.4566C235.197 50.8293 234.816 50.3516 234.316 50.0237C233.817 49.6958 233.222 49.5318 232.531 49.5318C231.846 49.5318 231.255 49.6993 230.756 50.0344C230.264 50.3623 229.882 50.84 229.611 51.4673C229.341 52.0875 229.205 52.8432 229.205 53.7343V53.7557C229.205 54.6468 229.341 55.406 229.611 56.0334C229.882 56.6607 230.264 57.1419 230.756 57.477C231.255 57.812 231.85 57.9796 232.541 57.9796ZM240.588 59.4125V48.0882H242.449V49.7457H242.556C242.848 49.1825 243.272 48.7334 243.828 48.3983C244.392 48.0561 245.097 47.885 245.946 47.885C247.2 47.885 248.17 48.2557 248.854 48.9971C249.539 49.7314 249.881 50.758 249.881 52.0768V59.4125H248.02V52.4618C248.02 51.4923 247.803 50.7615 247.368 50.2697C246.94 49.7778 246.284 49.5318 245.4 49.5318C244.802 49.5318 244.281 49.6637 243.839 49.9275C243.397 50.1841 243.055 50.5512 242.813 51.0289C242.57 51.5065 242.449 52.0733 242.449 52.7291V59.4125H240.588ZM262.093 59.5622C260.995 59.5622 260.186 59.3234 259.666 58.8457C259.145 58.361 258.885 57.5803 258.885 56.5039V49.6281H257.163V48.0882H258.885V45.0941H260.81V48.0882H263.13V49.6281H260.81V56.2686C260.81 56.9031 260.938 57.3451 261.195 57.5946C261.452 57.8441 261.854 57.9689 262.403 57.9689C262.539 57.9689 262.66 57.9653 262.767 57.9582C262.881 57.951 263.002 57.9404 263.13 57.9261V59.4766C262.981 59.498 262.817 59.5158 262.638 59.5301C262.46 59.5515 262.278 59.5622 262.093 59.5622ZM266.077 59.4125V43.6505H267.937V49.8526H268.044C268.344 49.2324 268.778 48.7512 269.349 48.409C269.919 48.0597 270.621 47.885 271.455 47.885C272.282 47.885 272.995 48.0633 273.594 48.4197C274.193 48.7761 274.653 49.2823 274.974 49.9382C275.301 50.594 275.465 51.3746 275.465 52.28V59.4125H273.605V52.665C273.605 51.6455 273.373 50.8685 272.91 50.3338C272.446 49.7991 271.769 49.5318 270.878 49.5318C270.286 49.5318 269.769 49.6673 269.327 49.9382C268.885 50.2019 268.543 50.5762 268.301 51.061C268.058 51.5386 267.937 52.1053 267.937 52.7612V59.4125H266.077ZM283.299 59.6263C282.215 59.6263 281.285 59.3875 280.508 58.9099C279.73 58.4323 279.132 57.7586 278.711 56.8888C278.298 56.012 278.091 54.9819 278.091 53.7985V53.7878C278.091 52.6186 278.301 51.5921 278.722 50.7081C279.142 49.817 279.734 49.1255 280.497 48.6336C281.26 48.1345 282.154 47.885 283.181 47.885C284.207 47.885 285.091 48.1239 285.833 48.6015C286.574 49.072 287.145 49.735 287.544 50.5905C287.943 51.4459 288.143 52.4368 288.143 53.5632V54.269H279.043V52.804H287.202L286.271 54.1513V53.4242C286.271 52.5402 286.139 51.8131 285.876 51.2427C285.612 50.6653 285.245 50.2376 284.774 49.9595C284.311 49.6744 283.776 49.5318 283.17 49.5318C282.564 49.5318 282.019 49.6815 281.534 49.9809C281.056 50.2732 280.679 50.7116 280.401 51.2962C280.123 51.8737 279.984 52.583 279.984 53.4242V54.1513C279.984 54.9569 280.119 55.6448 280.39 56.2152C280.668 56.7783 281.056 57.2132 281.555 57.5198C282.062 57.8192 282.657 57.9689 283.341 57.9689C283.833 57.9689 284.268 57.8976 284.646 57.755C285.024 57.6124 285.337 57.4235 285.587 57.1883C285.836 56.953 286.015 56.6964 286.122 56.4183L286.154 56.3221H288.004L287.982 56.4183C287.882 56.8461 287.704 57.2524 287.448 57.6374C287.191 58.0223 286.859 58.3645 286.453 58.6639C286.054 58.9634 285.587 59.1986 285.052 59.3697C284.525 59.5408 283.94 59.6263 283.299 59.6263Z" fill="black"/>
<path d="M122.035 103.412L134.464 69.251H138.772V74.9091H137.281L127.622 103.412H122.035ZM128.072 94.1796L129.611 89.9183H145.046L146.585 94.1796H128.072ZM147.035 103.412L137.399 74.9091V69.251H140.217L152.622 103.412H147.035ZM154.623 111.698V78.5075H159.784V82.7688H159.902C160.391 81.7903 161.015 80.9459 161.772 80.2357C162.546 79.5255 163.429 78.981 164.424 78.6022C165.418 78.2234 166.507 78.034 167.691 78.034C169.806 78.034 171.644 78.5627 173.207 79.6202C174.769 80.6618 175.977 82.1533 176.829 84.0946C177.681 86.02 178.107 88.3085 178.107 90.96V90.9837C178.107 93.6351 177.673 95.9236 176.805 97.8491C175.953 99.7746 174.753 101.266 173.207 102.323C171.66 103.381 169.845 103.91 167.762 103.91C166.594 103.91 165.497 103.72 164.471 103.341C163.461 102.963 162.569 102.426 161.796 101.732C161.023 101.021 160.383 100.185 159.878 99.2222H159.784V111.698H154.623ZM166.341 99.4826C167.683 99.4826 168.843 99.1433 169.821 98.4646C170.8 97.7702 171.55 96.7838 172.07 95.5054C172.591 94.227 172.852 92.7198 172.852 90.9837V90.96C172.852 89.1923 172.591 87.6693 172.07 86.3909C171.55 85.1125 170.8 84.134 169.821 83.4554C168.843 82.7767 167.683 82.4374 166.341 82.4374C165.047 82.4374 163.903 82.7925 162.909 83.5027C161.914 84.1971 161.133 85.1836 160.565 86.4619C160.012 87.7246 159.736 89.2239 159.736 90.96V90.9837C159.736 92.704 160.02 94.2033 160.589 95.4817C161.157 96.7443 161.93 97.7307 162.909 98.441C163.903 99.1354 165.047 99.4826 166.341 99.4826ZM180.961 111.698V78.5075H186.121V82.7688H186.24C186.729 81.7903 187.352 80.9459 188.11 80.2357C188.883 79.5255 189.767 78.981 190.762 78.6022C191.756 78.2234 192.845 78.034 194.029 78.034C196.143 78.034 197.982 78.5627 199.545 79.6202C201.107 80.6618 202.314 82.1533 203.167 84.0946C204.019 86.02 204.445 88.3085 204.445 90.96V90.9837C204.445 93.6351 204.011 95.9236 203.143 97.8491C202.291 99.7746 201.091 101.266 199.545 102.323C197.998 103.381 196.183 103.91 194.1 103.91C192.932 103.91 191.835 103.72 190.809 103.341C189.799 102.963 188.907 102.426 188.134 101.732C187.36 101.021 186.721 100.185 186.216 99.2222H186.121V111.698H180.961ZM192.679 99.4826C194.021 99.4826 195.181 99.1433 196.159 98.4646C197.138 97.7702 197.887 96.7838 198.408 95.5054C198.929 94.227 199.189 92.7198 199.189 90.9837V90.96C199.189 89.1923 198.929 87.6693 198.408 86.3909C197.887 85.1125 197.138 84.134 196.159 83.4554C195.181 82.7767 194.021 82.4374 192.679 82.4374C191.385 82.4374 190.241 82.7925 189.246 83.5027C188.252 84.1971 187.471 85.1836 186.903 86.4619C186.35 87.7246 186.074 89.2239 186.074 90.96V90.9837C186.074 92.704 186.358 94.2033 186.926 95.4817C187.495 96.7443 188.268 97.7307 189.246 98.441C190.241 99.1354 191.385 99.4826 192.679 99.4826ZM228.357 103.981C225.8 103.981 223.559 103.594 221.633 102.821C219.724 102.047 218.209 100.942 217.088 99.5063C215.968 98.0543 215.336 96.3261 215.194 94.3217L215.17 93.9666H220.355L220.402 94.2743C220.56 95.316 220.994 96.2235 221.704 96.9968C222.43 97.7544 223.377 98.3384 224.545 98.7487C225.713 99.1591 227.055 99.3642 228.57 99.3642C230.101 99.3642 231.419 99.1512 232.523 98.725C233.628 98.2989 234.481 97.6913 235.08 96.9021C235.696 96.113 236.004 95.1897 236.004 94.1323V94.1086C236.004 92.7355 235.506 91.6465 234.512 90.8416C233.534 90.0209 231.908 89.3659 229.635 88.8767L225.918 88.0954C222.573 87.3852 220.079 86.2489 218.437 84.6864C216.796 83.1081 215.975 81.0564 215.975 78.5312V78.5075C215.991 76.5662 216.528 74.8617 217.585 73.3939C218.643 71.9104 220.103 70.7582 221.965 69.9375C223.827 69.1011 225.966 68.6828 228.381 68.6828C230.748 68.6828 232.839 69.0853 234.654 69.8902C236.469 70.6951 237.905 71.8236 238.963 73.2756C240.02 74.7118 240.612 76.3926 240.738 78.3181L240.762 78.6969H235.577L235.53 78.3891C235.388 77.3159 234.993 76.4005 234.346 75.643C233.715 74.8854 232.886 74.3093 231.861 73.9148C230.835 73.5044 229.643 73.2992 228.286 73.2992C226.881 73.2992 225.658 73.5123 224.616 73.9384C223.575 74.3488 222.77 74.9249 222.202 75.6666C221.633 76.4084 221.349 77.2844 221.349 78.2944V78.3181C221.349 79.5965 221.854 80.6382 222.865 81.4431C223.875 82.248 225.445 82.8793 227.576 83.337L231.292 84.1419C233.644 84.6312 235.562 85.294 237.045 86.1305C238.529 86.967 239.626 88.0086 240.336 89.2555C241.046 90.5023 241.401 92.0095 241.401 93.7772V93.8009C241.401 95.8842 240.872 97.6913 239.815 99.2222C238.773 100.737 237.274 101.913 235.317 102.75C233.376 103.57 231.056 103.981 228.357 103.981ZM253.18 103.91C250.717 103.91 248.879 103.357 247.664 102.252C246.464 101.132 245.864 99.3248 245.864 96.8311V82.5794H242.29V78.5075H245.864V72.0209H251.12V78.5075H255.784V82.5794H251.12V96.547C251.12 97.8096 251.396 98.6777 251.949 99.1512C252.501 99.6089 253.322 99.8377 254.411 99.8377C254.679 99.8377 254.924 99.8298 255.144 99.814C255.381 99.7825 255.594 99.7588 255.784 99.743V103.697C255.484 103.744 255.105 103.791 254.647 103.839C254.19 103.886 253.7 103.91 253.18 103.91ZM269.077 103.91C266.694 103.91 264.611 103.389 262.827 102.347C261.06 101.29 259.687 99.7983 258.708 97.8728C257.729 95.9315 257.24 93.6273 257.24 90.96V90.9126C257.24 88.2612 257.729 85.9727 258.708 84.0472C259.702 82.1217 261.083 80.6382 262.851 79.5965C264.634 78.5549 266.702 78.034 269.054 78.034C271.421 78.034 273.488 78.5549 275.256 79.5965C277.04 80.6224 278.42 82.0981 279.399 84.0235C280.393 85.949 280.89 88.2454 280.89 90.9126V90.96C280.89 93.643 280.393 95.9473 279.399 97.8728C278.42 99.7983 277.047 101.29 275.28 102.347C273.512 103.389 271.445 103.91 269.077 103.91ZM269.101 99.601C270.427 99.601 271.579 99.2616 272.557 98.583C273.536 97.9043 274.293 96.9258 274.83 95.6474C275.367 94.3533 275.635 92.7908 275.635 90.96V90.9126C275.635 89.0976 275.367 87.5509 274.83 86.2726C274.293 84.9784 273.528 83.9999 272.534 83.337C271.539 82.6583 270.379 82.319 269.054 82.319C267.744 82.319 266.591 82.6583 265.597 83.337C264.619 84.0156 263.853 84.9942 263.301 86.2726C262.748 87.5509 262.472 89.0976 262.472 90.9126V90.96C262.472 92.7908 262.74 94.3533 263.277 95.6474C263.829 96.9258 264.603 97.9043 265.597 98.583C266.591 99.2616 267.759 99.601 269.101 99.601ZM283.72 103.412V78.5075H288.881V82.7688H288.976C289.37 81.301 290.073 80.1489 291.083 79.3124C292.093 78.4602 293.308 78.034 294.728 78.034C295.107 78.034 295.447 78.0577 295.746 78.105C296.062 78.1366 296.315 78.1761 296.504 78.2234V82.9819C296.299 82.903 295.991 82.8398 295.581 82.7925C295.17 82.7294 294.713 82.6978 294.208 82.6978C293.119 82.6978 292.172 82.9345 291.367 83.408C290.562 83.8657 289.946 84.5365 289.52 85.4203C289.094 86.2883 288.881 87.3379 288.881 88.5689V103.412H283.72ZM308.211 103.91C305.781 103.91 303.682 103.389 301.914 102.347C300.162 101.29 298.813 99.7983 297.866 97.8728C296.935 95.9315 296.469 93.6509 296.469 91.031V91.0073C296.469 88.419 296.943 86.1542 297.89 84.2129C298.836 82.2559 300.17 80.7407 301.89 79.6675C303.611 78.5785 305.631 78.034 307.951 78.034C310.287 78.034 312.291 78.5549 313.964 79.5965C315.653 80.6224 316.955 82.0823 317.87 83.9762C318.786 85.8543 319.243 88.0402 319.243 90.5339V92.2621H299.002V88.6399H316.758L314.225 92.0253V90.0367C314.225 88.2848 313.956 86.8328 313.42 85.6807C312.899 84.5128 312.165 83.6447 311.218 83.0766C310.287 82.5084 309.206 82.2243 307.975 82.2243C306.759 82.2243 305.67 82.5242 304.708 83.1239C303.745 83.7237 302.987 84.6075 302.435 85.7754C301.883 86.9275 301.606 88.348 301.606 90.0367V92.0253C301.606 93.6351 301.875 95.0161 302.411 96.1683C302.964 97.3046 303.745 98.1805 304.755 98.7961C305.765 99.3958 306.957 99.6957 308.33 99.6957C309.34 99.6957 310.232 99.5457 311.005 99.2459C311.778 98.9302 312.417 98.5199 312.922 98.0148C313.443 97.494 313.806 96.9179 314.011 96.2866L314.082 96.0972H318.959L318.912 96.3576C318.707 97.3362 318.32 98.2752 317.752 99.1748C317.184 100.074 316.442 100.887 315.527 101.613C314.627 102.323 313.562 102.884 312.331 103.294C311.1 103.704 309.726 103.91 308.211 103.91Z" fill="black"/>
</g>
</g>
<defs>
<filter id="filter0_ddiiiii_27_1848" x="0" y="0" width="376.7" height="158.923" filterUnits="userSpaceOnUse" color-interpolation-filters="sRGB">
<feFlood flood-opacity="0" result="BackgroundImageFix"/>
<feColorMatrix in="SourceAlpha" type="matrix" values="0 0 0 0 0 0 0 0 0 0 0 0 0 0 0 0 0 0 127 0" result="hardAlpha"/>
<feOffset dy="8.76923"/>
<feGaussianBlur stdDeviation="6.57692"/>
<feComposite in2="hardAlpha" operator="out"/>
<feColorMatrix type="matrix" values="0 0 0 0 0.298039 0 0 0 0 0.0784314 0 0 0 0 0.407843 0 0 0 0.08 0"/>
<feBlend mode="normal" in2="BackgroundImageFix" result="effect1_dropShadow_27_1848"/>
<feColorMatrix in="SourceAlpha" type="matrix" values="0 0 0 0 0 0 0 0 0 0 0 0 0 0 0 0 0 0 127 0" result="hardAlpha"/>
<feOffset dy="4"/>
<feGaussianBlur stdDeviation="8"/>
<feComposite in2="hardAlpha" operator="out"/>
<feColorMatrix type="matrix" values="0 0 0 0 0.980392 0 0 0 0 0.368627 0 0 0 0 0.709804 0 0 0 0.32 0"/>
<feBlend mode="normal" in2="effect1_dropShadow_27_1848" result="effect2_dropShadow_27_1848"/>
<feBlend mode="normal" in="SourceGraphic" in2="BackgroundImageFix" result="shape"/>
<feColorMatrix in="SourceAlpha" type="matrix" values="0 0 0 0 0 0 0 0 0 0 0 0 0 0 0 0 0 0 127 0" result="hardAlpha"/>
<feOffset/>
<feGaussianBlur stdDeviation="36.1731"/>
<feComposite in2="hardAlpha" operator="arithmetic" k2="-1" k3="1"/>
<feColorMatrix type="matrix" values="0 0 0 0 0.94902 0 0 0 0 0.94902 0 0 0 0 0.94902 0 0 0 0.2 0"/>
<feBlend mode="plus-darker" in2="shape" result="effect3_innerShadow_27_1848"/>
<feColorMatrix in="SourceAlpha" type="matrix" values="0 0 0 0 0 0 0 0 0 0 0 0 0 0 0 0 0 0 127 0" result="hardAlpha"/>
<feMorphology radius="6.57692" operator="dilate" in="SourceAlpha" result="effect4_innerShadow_27_1848"/>
<feOffset dx="-2.19231" dy="-2.19231"/>
<feGaussianBlur stdDeviation="1.64423"/>
<feComposite in2="hardAlpha" operator="arithmetic" k2="-1" k3="1"/>
<feColorMatrix type="matrix" values="0 0 0 0 0.701961 0 0 0 0 0.701961 0 0 0 0 0.701961 0 0 0 0.5 0"/>
<feBlend mode="overlay" in2="effect3_innerShadow_27_1848" result="effect4_innerShadow_27_1848"/>
<feColorMatrix in="SourceAlpha" type="matrix" values="0 0 0 0 0 0 0 0 0 0 0 0 0 0 0 0 0 0 127 0" result="hardAlpha"/>
<feMorphology radius="6.57692" operator="dilate" in="SourceAlpha" result="effect5_innerShadow_27_1848"/>
<feOffset dx="2.19231" dy="2.19231"/>
<feGaussianBlur stdDeviation="1.64423"/>
<feComposite in2="hardAlpha" operator="arithmetic" k2="-1" k3="1"/>
<feColorMatrix type="matrix" values="0 0 0 0 0.701961 0 0 0 0 0.701961 0 0 0 0 0.701961 0 0 0 0.1 0"/>
<feBlend mode="plus-lighter" in2="effect4_innerShadow_27_1848" result="effect5_innerShadow_27_1848"/>
<feColorMatrix in="SourceAlpha" type="matrix" values="0 0 0 0 0 0 0 0 0 0 0 0 0 0 0 0 0 0 127 0" result="hardAlpha"/>
<feMorphology radius="11.5096" operator="dilate" in="SourceAlpha" result="effect6_innerShadow_27_1848"/>
<feOffset dx="2.19231" dy="2.19231"/>
<feGaussianBlur stdDeviation="1.64423"/>
<feComposite in2="hardAlpha" operator="arithmetic" k2="-1" k3="1"/>
<feColorMatrix type="matrix" values="0 0 0 0 1 0 0 0 0 1 0 0 0 0 1 0 0 0 0.15 0"/>
<feBlend mode="normal" in2="effect5_innerShadow_27_1848" result="effect6_innerShadow_27_1848"/>
<feColorMatrix in="SourceAlpha" type="matrix" values="0 0 0 0 0 0 0 0 0 0 0 0 0 0 0 0 0 0 127 0" result="hardAlpha"/>
<feMorphology radius="11.5096" operator="dilate" in="SourceAlpha" result="effect7_innerShadow_27_1848"/>
<feOffset dx="-2.19231" dy="-2.19231"/>
<feGaussianBlur stdDeviation="1.64423"/>
<feComposite in2="hardAlpha" operator="arithmetic" k2="-1" k3="1"/>
<feColorMatrix type="matrix" values="0 0 0 0 1 0 0 0 0 1 0 0 0 0 1 0 0 0 0.2 0"/>
<feBlend mode="overlay" in2="effect6_innerShadow_27_1848" result="effect7_innerShadow_27_1848"/>
<feBlend mode="normal" in="effect7_innerShadow_27_1848" in2="effect2_dropShadow_27_1848" result="effect7_innerShadow_27_1848"/>
</filter>
<filter id="filter1_dddd_27_1848" x="17.503" y="14.4024" width="341.694" height="121.994" filterUnits="userSpaceOnUse" color-interpolation-filters="sRGB">
<feFlood flood-opacity="0" result="BackgroundImageFix"/>
<feColorMatrix in="SourceAlpha" type="matrix" values="0 0 0 0 0 0 0 0 0 0 0 0 0 0 0 0 0 0 127 0" result="hardAlpha"/>
<feMorphology radius="0.899408" operator="dilate" in="SourceAlpha" result="effect1_dropShadow_27_1848"/>
<feOffset dy="0.899408"/>
<feGaussianBlur stdDeviation="1.79882"/>
<feComposite in2="hardAlpha" operator="out"/>
<feColorMatrix type="matrix" values="0 0 0 0 0 0 0 0 0 0 0 0 0 0 0 0 0 0 0.12 0"/>
<feBlend mode="normal" in2="BackgroundImageFix" result="effect1_dropShadow_27_1848"/>
<feColorMatrix in="SourceAlpha" type="matrix" values="0 0 0 0 0 0 0 0 0 0 0 0 0 0 0 0 0 0 127 0" result="hardAlpha"/>
<feMorphology radius="1.34911" operator="erode" in="SourceAlpha" result="effect2_dropShadow_27_1848"/>
<feOffset dy="2.69822"/>
<feGaussianBlur stdDeviation="1.46154"/>
<feComposite in2="hardAlpha" operator="out"/>
<feColorMatrix type="matrix" values="0 0 0 0 0 0 0 0 0 0 0 0 0 0 0 0 0 0 0.25 0"/>
<feBlend mode="normal" in2="effect1_dropShadow_27_1848" result="effect2_dropShadow_27_1848"/>
<feColorMatrix in="SourceAlpha" type="matrix" values="0 0 0 0 0 0 0 0 0 0 0 0 0 0 0 0 0 0 127 0" result="hardAlpha"/>
<feMorphology radius="0.674556" operator="dilate" in="SourceAlpha" result="effect3_dropShadow_27_1848"/>
<feOffset/>
<feGaussianBlur stdDeviation="0.112426"/>
<feComposite in2="hardAlpha" operator="out"/>
<feColorMatrix type="matrix" values="0 0 0 0 0 0 0 0 0 0 0 0 0 0 0 0 0 0 0.05 0"/>
<feBlend mode="normal" in2="effect2_dropShadow_27_1848" result="effect3_dropShadow_27_1848"/>
<feColorMatrix in="SourceAlpha" type="matrix" values="0 0 0 0 0 0 0 0 0 0 0 0 0 0 0 0 0 0 127 0" result="hardAlpha"/>
<feMorphology radius="0.224852" operator="dilate" in="SourceAlpha" result="effect4_dropShadow_27_1848"/>
<feOffset/>
<feGaussianBlur stdDeviation="0.112426"/>
<feComposite in2="hardAlpha" operator="out"/>
<feColorMatrix type="matrix" values="0 0 0 0 0 0 0 0 0 0 0 0 0 0 0 0 0 0 0.07 0"/>
<feBlend mode="normal" in2="effect3_dropShadow_27_1848" result="effect4_dropShadow_27_1848"/>
<feBlend mode="normal" in="SourceGraphic" in2="effect4_dropShadow_27_1848" result="shape"/>
</filter>
<linearGradient id="paint0_linear_27_1848" x1="85.3996" y1="126.969" x2="118.941" y2="-51.03" gradientUnits="userSpaceOnUse">
<stop stop-color="#FFCFF3"/>
<stop offset="1" stop-color="#FFF9FC"/>
</linearGradient>
<linearGradient id="paint1_linear_27_1848" x1="188.35" y1="18" x2="188.35" y2="131" gradientUnits="userSpaceOnUse">
<stop stop-color="#F4F4F4"/>
<stop offset="1" stop-color="#FEFEFE"/>
</linearGradient>
<linearGradient id="paint2_linear_27_1848" x1="95.194" y1="29.3" x2="133.658" y2="179.186" gradientUnits="userSpaceOnUse">
<stop stop-color="#FFB2EB"/>
<stop offset="1" stop-color="#FF51D3"/>
</linearGradient>
</defs>
</svg>
