<svg width="9" height="9" viewBox="0 0 9 9" fill="none" xmlns="http://www.w3.org/2000/svg">
<path d="M8.50112 0.671005V6.48638C8.50112 6.66434 8.43042 6.83501 8.30458 6.96085C8.17875 7.08669 8.00808 7.15739 7.83011 7.15739C7.65215 7.15739 7.48148 7.08669 7.35564 6.96085C7.2298 6.83501 7.15911 6.66434 7.15911 6.48638V2.2926L1.14746 8.30313C1.02141 8.42918 0.850439 8.5 0.672169 8.5C0.493899 8.5 0.32293 8.42918 0.196874 8.30313C0.0708177 8.17707 0 8.0061 0 7.82783C0 7.64956 0.0708177 7.47859 0.196874 7.35254L6.20852 1.34201H2.01474C1.83678 1.34201 1.6661 1.27131 1.54027 1.14548C1.41443 1.01964 1.34373 0.848966 1.34373 0.671005C1.34373 0.493043 1.41443 0.322371 1.54027 0.196533C1.6661 0.0706949 1.83678 0 2.01474 0H7.83011C8.00808 0 8.17875 0.0706949 8.30458 0.196533C8.43042 0.322371 8.50112 0.493043 8.50112 0.671005Z" fill="white"/>
</svg>
