<svg width="369" height="159" viewBox="0 0 369 159" fill="none" xmlns="http://www.w3.org/2000/svg">
<g filter="url(#filter0_ddiiiii_27_1869)">
<rect x="16" y="12" width="336.357" height="125" rx="62.5" fill="url(#paint0_linear_27_1869)" shape-rendering="crispEdges"/>
<g filter="url(#filter1_dddd_27_1869)">
<rect x="22" y="18" width="324.357" height="113" rx="56.5" fill="url(#paint1_linear_27_1869)"/>
<rect x="22.5" y="18.5" width="323.357" height="112" rx="56" stroke="url(#paint2_linear_27_1869)"/>
<path d="M69.5704 72.7644L46.2153 98.1124C46.2175 98.1169 46.2175 98.1236 46.2197 98.1281C46.937 100.881 49.3938 102.906 52.3113 102.906C53.4783 102.906 54.5729 102.583 55.5117 102.018L55.5863 101.973L81.8742 86.4613L69.5704 72.7644Z" fill="#EA4335"/>
<path d="M93.197 68.4481L93.175 68.4324L81.8255 61.7051L69.0391 73.3405L81.8715 86.4587L93.1597 79.7986C95.1383 78.704 96.483 76.5707 96.483 74.1122C96.483 71.6671 95.158 69.545 93.197 68.4481Z" fill="#FBBC04"/>
<path d="M46.214 50.0026C46.0736 50.532 45.999 51.0883 45.999 51.6626V96.4546C45.999 97.0288 46.0736 97.5852 46.2162 98.1123L70.3719 73.4125L46.214 50.0026Z" fill="#4285F4"/>
<path d="M69.7437 74.0585L81.8303 61.7007L55.5732 46.133C54.6189 45.5475 53.5046 45.2111 52.3135 45.2111C49.396 45.2111 46.9348 47.2411 46.2175 49.9958C46.2175 49.998 46.2153 50.0003 46.2153 50.0025L69.7437 74.0585Z" fill="#34A853"/>
<path d="M121.47 60.9101C120.4 60.9101 119.431 60.7212 118.561 60.3433C117.698 59.9655 116.961 59.4237 116.347 58.7179C115.734 58.0122 115.26 57.1638 114.925 56.1729C114.597 55.182 114.433 54.0735 114.433 52.8473V52.8259C114.433 51.2076 114.722 49.8032 115.3 48.6127C115.884 47.4222 116.704 46.499 117.759 45.8431C118.814 45.1873 120.051 44.8593 121.47 44.8593C122.632 44.8593 123.651 45.0661 124.528 45.4796C125.412 45.8859 126.135 46.4527 126.699 47.1798C127.269 47.8998 127.665 48.7303 127.886 49.6714L127.928 49.8318H125.939L125.897 49.7141C125.562 48.7303 125.016 47.9711 124.261 47.4364C123.512 46.9018 122.582 46.6344 121.47 46.6344C120.429 46.6344 119.531 46.8875 118.775 47.3937C118.019 47.8927 117.435 48.6056 117.021 49.5323C116.608 50.4591 116.401 51.557 116.401 52.8259V52.8473C116.401 53.8168 116.519 54.6901 116.754 55.4672C116.989 56.2371 117.328 56.8965 117.77 57.4454C118.212 57.9872 118.743 58.4043 119.363 58.6966C119.99 58.9888 120.696 59.135 121.48 59.135C122.393 59.135 123.195 58.9532 123.886 58.5896C124.585 58.2189 125.127 57.7056 125.512 57.0498C125.904 56.3939 126.1 55.6311 126.1 54.7614V54.4406H121.748V52.751H128.025V54.4192C128.025 55.4173 127.871 56.3155 127.565 57.1139C127.265 57.9124 126.831 58.5968 126.26 59.1671C125.69 59.7302 124.998 60.1615 124.186 60.461C123.38 60.7604 122.475 60.9101 121.47 60.9101ZM131.393 60.6V45.1695H140.953V46.9018H133.318V51.8528H140.557V53.5637H133.318V58.8677H140.953V60.6H131.393ZM148.395 60.6V46.9018H143.477V45.1695H155.239V46.9018H150.32V60.6H148.395ZM163.623 60.6V45.1695H165.548V60.6H163.623ZM173.439 60.6V46.9018H168.52V45.1695H180.283V46.9018H175.364V60.6H173.439ZM195.168 60.9101C193.707 60.9101 192.445 60.5822 191.383 59.9263C190.321 59.2704 189.501 58.3437 188.923 57.146C188.353 55.9412 188.068 54.5226 188.068 52.8901V52.8687C188.068 51.229 188.357 49.8104 188.934 48.6127C189.511 47.4151 190.331 46.4919 191.393 45.8431C192.456 45.1873 193.714 44.8593 195.168 44.8593C196.63 44.8593 197.888 45.1873 198.943 45.8431C200.005 46.4919 200.825 47.4151 201.402 48.6127C201.98 49.8104 202.269 51.229 202.269 52.8687V52.8901C202.269 54.5226 201.98 55.9412 201.402 57.146C200.832 58.3437 200.016 59.2704 198.954 59.9263C197.899 60.5822 196.637 60.9101 195.168 60.9101ZM195.168 59.135C196.23 59.135 197.143 58.8783 197.906 58.3651C198.676 57.8447 199.267 57.1175 199.681 56.1836C200.094 55.2497 200.301 54.1519 200.301 52.8901V52.8687C200.301 51.5997 200.091 50.4983 199.67 49.5644C199.257 48.6305 198.665 47.9105 197.895 47.4044C197.132 46.8911 196.223 46.6344 195.168 46.6344C194.12 46.6344 193.211 46.8911 192.441 47.4044C191.679 47.9105 191.087 48.6305 190.666 49.5644C190.246 50.4912 190.035 51.5926 190.035 52.8687V52.8901C190.035 54.1519 190.242 55.2533 190.656 56.1943C191.069 57.1282 191.661 57.8518 192.431 58.3651C193.201 58.8783 194.113 59.135 195.168 59.135ZM205.562 60.6V45.1695H207.434L216.94 58.8035L215.069 57.2636H215.978V45.1695H217.881V60.6H216.01L206.514 46.9873L208.385 48.5272H207.466V60.6H205.562Z" fill="white"/>
<path d="M251.582 98.2403H255.498V71.769H251.582V98.2403ZM286.85 81.3043L282.362 92.7813H282.227L277.569 81.3043H273.351L280.337 97.3446L276.356 106.268H280.437L291.204 81.3043H286.85ZM264.645 95.2334C263.361 95.2334 261.573 94.5876 261.573 92.9846C261.573 90.9433 263.799 90.1598 265.723 90.1598C267.444 90.1598 268.256 90.5346 269.301 91.0449C268.997 93.497 266.905 95.2334 264.645 95.2334ZM265.117 80.7262C262.282 80.7262 259.344 81.9861 258.131 84.7791L261.606 86.2424C262.349 84.7791 263.732 84.3006 265.184 84.3006C267.209 84.3006 269.268 85.5266 269.301 87.7077V87.9787C268.592 87.57 267.075 86.9581 265.218 86.9581C261.472 86.9581 257.657 89.0354 257.657 92.9168C257.657 96.4595 260.729 98.7422 264.171 98.7422C266.804 98.7422 268.256 97.55 269.167 96.1524H269.301V98.1959H273.08V88.0465C273.08 83.3477 269.605 80.7262 265.117 80.7262ZM240.918 84.5272H235.349V75.4535H240.918C243.846 75.4535 245.507 77.8993 245.507 79.9893C245.507 82.0412 243.846 84.5272 240.918 84.5272ZM240.818 71.769H231.436V98.2403H235.349V88.2117H240.818C245.157 88.2117 249.423 85.0396 249.423 79.9893C249.423 74.9389 245.157 71.769 240.818 71.769ZM189.657 95.2377C186.952 95.2377 184.688 92.9528 184.688 89.8146C184.688 86.6426 186.952 84.3217 189.657 84.3217C192.328 84.3217 194.422 86.6426 194.422 89.8146C194.422 92.9528 192.328 95.2377 189.657 95.2377ZM194.153 82.7865H194.017C193.138 81.7299 191.449 80.7749 189.319 80.7749C184.855 80.7749 180.766 84.7304 180.766 89.8146C180.766 94.8628 184.855 98.7866 189.319 98.7866C191.449 98.7866 193.138 97.8316 194.017 96.739H194.153V98.037C194.153 101.482 192.328 103.325 189.386 103.325C186.985 103.325 185.497 101.584 184.889 100.116L181.475 101.55C182.455 103.939 185.059 106.871 189.386 106.871C193.983 106.871 197.872 104.142 197.872 97.4907V81.3191H194.153V82.7865ZM200.577 98.2403H204.498V71.7669H200.577V98.2403ZM210.277 89.5076C210.177 86.0285 212.949 84.254 214.942 84.254C216.499 84.254 217.817 85.0375 218.256 86.164L210.277 89.5076ZM222.448 86.5049C221.705 84.4933 219.439 80.7749 214.808 80.7749C210.21 80.7749 206.391 84.4234 206.391 89.7808C206.391 94.829 210.177 98.7866 215.246 98.7866C219.338 98.7866 221.705 96.2625 222.685 94.7951L219.643 92.7474C218.629 94.2488 217.242 95.2377 215.246 95.2377C213.253 95.2377 211.832 94.3165 210.92 92.5103L222.853 87.5277L222.448 86.5049ZM127.374 83.5383V87.3583H136.433C136.162 89.5076 135.453 91.0767 134.372 92.1672C133.052 93.4992 130.99 94.9666 127.374 94.9666C121.794 94.9666 117.434 90.4287 117.434 84.8003C117.434 79.1698 121.794 74.634 127.374 74.634C130.383 74.634 132.58 75.8283 134.202 77.3635L136.873 74.6679C134.607 72.4847 131.6 70.8119 127.374 70.8119C119.734 70.8119 113.311 77.0904 113.311 84.8003C113.311 92.5103 119.734 98.7866 127.374 98.7866C131.497 98.7866 134.607 97.4208 137.041 94.8628C139.545 92.3387 140.321 88.7919 140.321 85.9247C140.321 85.0375 140.254 84.2201 140.118 83.5383H127.374ZM150.622 95.2377C147.917 95.2377 145.584 92.9867 145.584 89.7808C145.584 86.5388 147.917 84.3217 150.622 84.3217C153.325 84.3217 155.658 86.5388 155.658 89.7808C155.658 92.9867 153.325 95.2377 150.622 95.2377ZM150.622 80.7749C145.685 80.7749 141.662 84.561 141.662 89.7808C141.662 94.9666 145.685 98.7866 150.622 98.7866C155.558 98.7866 159.58 94.9666 159.58 89.7808C159.58 84.561 155.558 80.7749 150.622 80.7749ZM170.165 95.2377C167.46 95.2377 165.126 92.9867 165.126 89.7808C165.126 86.5388 167.46 84.3217 170.165 84.3217C172.869 84.3217 175.201 86.5388 175.201 89.7808C175.201 92.9867 172.869 95.2377 170.165 95.2377ZM170.165 80.7749C165.229 80.7749 161.206 84.561 161.206 89.7808C161.206 94.9666 165.229 98.7866 170.165 98.7866C175.1 98.7866 179.123 94.9666 179.123 89.7808C179.123 84.561 175.1 80.7749 170.165 80.7749Z" fill="white"/>
</g>
</g>
<defs>
<filter id="filter0_ddiiiii_27_1869" x="0" y="0" width="368.357" height="158.923" filterUnits="userSpaceOnUse" color-interpolation-filters="sRGB">
<feFlood flood-opacity="0" result="BackgroundImageFix"/>
<feColorMatrix in="SourceAlpha" type="matrix" values="0 0 0 0 0 0 0 0 0 0 0 0 0 0 0 0 0 0 127 0" result="hardAlpha"/>
<feOffset dy="8.76923"/>
<feGaussianBlur stdDeviation="6.57692"/>
<feComposite in2="hardAlpha" operator="out"/>
<feColorMatrix type="matrix" values="0 0 0 0 0.298039 0 0 0 0 0.0784314 0 0 0 0 0.407843 0 0 0 0.08 0"/>
<feBlend mode="normal" in2="BackgroundImageFix" result="effect1_dropShadow_27_1869"/>
<feColorMatrix in="SourceAlpha" type="matrix" values="0 0 0 0 0 0 0 0 0 0 0 0 0 0 0 0 0 0 127 0" result="hardAlpha"/>
<feOffset dy="4"/>
<feGaussianBlur stdDeviation="8"/>
<feComposite in2="hardAlpha" operator="out"/>
<feColorMatrix type="matrix" values="0 0 0 0 0.980392 0 0 0 0 0.368627 0 0 0 0 0.709804 0 0 0 0.32 0"/>
<feBlend mode="normal" in2="effect1_dropShadow_27_1869" result="effect2_dropShadow_27_1869"/>
<feBlend mode="normal" in="SourceGraphic" in2="BackgroundImageFix" result="shape"/>
<feColorMatrix in="SourceAlpha" type="matrix" values="0 0 0 0 0 0 0 0 0 0 0 0 0 0 0 0 0 0 127 0" result="hardAlpha"/>
<feOffset/>
<feGaussianBlur stdDeviation="36.1731"/>
<feComposite in2="hardAlpha" operator="arithmetic" k2="-1" k3="1"/>
<feColorMatrix type="matrix" values="0 0 0 0 0.94902 0 0 0 0 0.94902 0 0 0 0 0.94902 0 0 0 0.2 0"/>
<feBlend mode="plus-darker" in2="shape" result="effect3_innerShadow_27_1869"/>
<feColorMatrix in="SourceAlpha" type="matrix" values="0 0 0 0 0 0 0 0 0 0 0 0 0 0 0 0 0 0 127 0" result="hardAlpha"/>
<feMorphology radius="6.57692" operator="dilate" in="SourceAlpha" result="effect4_innerShadow_27_1869"/>
<feOffset dx="-2.19231" dy="-2.19231"/>
<feGaussianBlur stdDeviation="1.64423"/>
<feComposite in2="hardAlpha" operator="arithmetic" k2="-1" k3="1"/>
<feColorMatrix type="matrix" values="0 0 0 0 0.701961 0 0 0 0 0.701961 0 0 0 0 0.701961 0 0 0 0.5 0"/>
<feBlend mode="overlay" in2="effect3_innerShadow_27_1869" result="effect4_innerShadow_27_1869"/>
<feColorMatrix in="SourceAlpha" type="matrix" values="0 0 0 0 0 0 0 0 0 0 0 0 0 0 0 0 0 0 127 0" result="hardAlpha"/>
<feMorphology radius="6.57692" operator="dilate" in="SourceAlpha" result="effect5_innerShadow_27_1869"/>
<feOffset dx="2.19231" dy="2.19231"/>
<feGaussianBlur stdDeviation="1.64423"/>
<feComposite in2="hardAlpha" operator="arithmetic" k2="-1" k3="1"/>
<feColorMatrix type="matrix" values="0 0 0 0 0.701961 0 0 0 0 0.701961 0 0 0 0 0.701961 0 0 0 0.1 0"/>
<feBlend mode="plus-lighter" in2="effect4_innerShadow_27_1869" result="effect5_innerShadow_27_1869"/>
<feColorMatrix in="SourceAlpha" type="matrix" values="0 0 0 0 0 0 0 0 0 0 0 0 0 0 0 0 0 0 127 0" result="hardAlpha"/>
<feMorphology radius="11.5096" operator="dilate" in="SourceAlpha" result="effect6_innerShadow_27_1869"/>
<feOffset dx="2.19231" dy="2.19231"/>
<feGaussianBlur stdDeviation="1.64423"/>
<feComposite in2="hardAlpha" operator="arithmetic" k2="-1" k3="1"/>
<feColorMatrix type="matrix" values="0 0 0 0 1 0 0 0 0 1 0 0 0 0 1 0 0 0 0.15 0"/>
<feBlend mode="normal" in2="effect5_innerShadow_27_1869" result="effect6_innerShadow_27_1869"/>
<feColorMatrix in="SourceAlpha" type="matrix" values="0 0 0 0 0 0 0 0 0 0 0 0 0 0 0 0 0 0 127 0" result="hardAlpha"/>
<feMorphology radius="11.5096" operator="dilate" in="SourceAlpha" result="effect7_innerShadow_27_1869"/>
<feOffset dx="-2.19231" dy="-2.19231"/>
<feGaussianBlur stdDeviation="1.64423"/>
<feComposite in2="hardAlpha" operator="arithmetic" k2="-1" k3="1"/>
<feColorMatrix type="matrix" values="0 0 0 0 1 0 0 0 0 1 0 0 0 0 1 0 0 0 0.2 0"/>
<feBlend mode="overlay" in2="effect6_innerShadow_27_1869" result="effect7_innerShadow_27_1869"/>
<feBlend mode="normal" in="effect7_innerShadow_27_1869" in2="effect2_dropShadow_27_1869" result="effect7_innerShadow_27_1869"/>
</filter>
<filter id="filter1_dddd_27_1869" x="17.503" y="14.4024" width="333.351" height="121.994" filterUnits="userSpaceOnUse" color-interpolation-filters="sRGB">
<feFlood flood-opacity="0" result="BackgroundImageFix"/>
<feColorMatrix in="SourceAlpha" type="matrix" values="0 0 0 0 0 0 0 0 0 0 0 0 0 0 0 0 0 0 127 0" result="hardAlpha"/>
<feMorphology radius="0.899408" operator="dilate" in="SourceAlpha" result="effect1_dropShadow_27_1869"/>
<feOffset dy="0.899408"/>
<feGaussianBlur stdDeviation="1.79882"/>
<feComposite in2="hardAlpha" operator="out"/>
<feColorMatrix type="matrix" values="0 0 0 0 0 0 0 0 0 0 0 0 0 0 0 0 0 0 0.12 0"/>
<feBlend mode="normal" in2="BackgroundImageFix" result="effect1_dropShadow_27_1869"/>
<feColorMatrix in="SourceAlpha" type="matrix" values="0 0 0 0 0 0 0 0 0 0 0 0 0 0 0 0 0 0 127 0" result="hardAlpha"/>
<feMorphology radius="1.34911" operator="erode" in="SourceAlpha" result="effect2_dropShadow_27_1869"/>
<feOffset dy="2.69822"/>
<feGaussianBlur stdDeviation="1.46154"/>
<feComposite in2="hardAlpha" operator="out"/>
<feColorMatrix type="matrix" values="0 0 0 0 0 0 0 0 0 0 0 0 0 0 0 0 0 0 0.25 0"/>
<feBlend mode="normal" in2="effect1_dropShadow_27_1869" result="effect2_dropShadow_27_1869"/>
<feColorMatrix in="SourceAlpha" type="matrix" values="0 0 0 0 0 0 0 0 0 0 0 0 0 0 0 0 0 0 127 0" result="hardAlpha"/>
<feMorphology radius="0.674556" operator="dilate" in="SourceAlpha" result="effect3_dropShadow_27_1869"/>
<feOffset/>
<feGaussianBlur stdDeviation="0.112426"/>
<feComposite in2="hardAlpha" operator="out"/>
<feColorMatrix type="matrix" values="0 0 0 0 0 0 0 0 0 0 0 0 0 0 0 0 0 0 0.05 0"/>
<feBlend mode="normal" in2="effect2_dropShadow_27_1869" result="effect3_dropShadow_27_1869"/>
<feColorMatrix in="SourceAlpha" type="matrix" values="0 0 0 0 0 0 0 0 0 0 0 0 0 0 0 0 0 0 127 0" result="hardAlpha"/>
<feMorphology radius="0.224852" operator="dilate" in="SourceAlpha" result="effect4_dropShadow_27_1869"/>
<feOffset/>
<feGaussianBlur stdDeviation="0.112426"/>
<feComposite in2="hardAlpha" operator="out"/>
<feColorMatrix type="matrix" values="0 0 0 0 0 0 0 0 0 0 0 0 0 0 0 0 0 0 0.07 0"/>
<feBlend mode="normal" in2="effect3_dropShadow_27_1869" result="effect4_dropShadow_27_1869"/>
<feBlend mode="normal" in="SourceGraphic" in2="effect4_dropShadow_27_1869" result="shape"/>
</filter>
<linearGradient id="paint0_linear_27_1869" x1="83.7199" y1="126.969" x2="118.034" y2="-50.724" gradientUnits="userSpaceOnUse">
<stop stop-color="#201E1F"/>
<stop offset="1"/>
</linearGradient>
<linearGradient id="paint1_linear_27_1869" x1="184.179" y1="18" x2="184.179" y2="131" gradientUnits="userSpaceOnUse">
<stop stop-color="#252525"/>
<stop offset="1"/>
</linearGradient>
<linearGradient id="paint2_linear_27_1869" x1="97.9408" y1="-4.30263" x2="358.22" y2="101.936" gradientUnits="userSpaceOnUse">
<stop stop-color="#FA5EB5"/>
<stop offset="1" stop-color="#8610E1"/>
</linearGradient>
</defs>
</svg>
