<svg width="369" height="159" viewBox="0 0 369 159" fill="none" xmlns="http://www.w3.org/2000/svg">
<g filter="url(#filter0_ddiiiii_27_1847)">
<rect x="16" y="12" width="336.357" height="125" rx="62.5" fill="url(#paint0_linear_27_1847)" shape-rendering="crispEdges"/>
<g filter="url(#filter1_dddd_27_1847)">
<rect x="22" y="18" width="324.357" height="113" rx="56.5" fill="url(#paint1_linear_27_1847)"/>
<rect x="22.5" y="18.5" width="323.357" height="112" rx="56" stroke="white" stroke-opacity="0.1"/>
<rect x="22.5" y="18.5" width="323.357" height="112" rx="56" stroke="url(#paint2_linear_27_1847)"/>
<path d="M69.5703 72.7644L46.2152 98.1124C46.2174 98.1169 46.2174 98.1236 46.2196 98.1281C46.9369 100.881 49.3937 102.906 52.3112 102.906C53.4782 102.906 54.5728 102.583 55.5116 102.018L55.5862 101.973L81.8741 86.4613L69.5703 72.7644Z" fill="#EA4335"/>
<path d="M93.1959 68.4481L93.174 68.4324L81.8244 61.7051L69.038 73.3405L81.8704 86.4587L93.1586 79.7986C95.1372 78.704 96.4819 76.5707 96.4819 74.1122C96.4819 71.6671 95.1569 69.545 93.1959 68.4481Z" fill="#FBBC04"/>
<path d="M46.2134 50.0026C46.073 50.532 45.9984 51.0883 45.9984 51.6626V96.4546C45.9984 97.0288 46.073 97.5852 46.2156 98.1123L70.3713 73.4125L46.2134 50.0026Z" fill="#4285F4"/>
<path d="M69.7436 74.0585L81.8302 61.7007L55.573 46.133C54.6188 45.5475 53.5045 45.2111 52.3134 45.2111C49.3959 45.2111 46.9347 47.2411 46.2174 49.9958C46.2174 49.998 46.2152 50.0003 46.2152 50.0025L69.7436 74.0585Z" fill="#34A853"/>
<path d="M121.47 60.9101C120.401 60.9101 119.431 60.7212 118.562 60.3433C117.699 59.9655 116.961 59.4237 116.348 58.7179C115.735 58.0122 115.261 57.1638 114.926 56.1729C114.598 55.182 114.434 54.0735 114.434 52.8473V52.8259C114.434 51.2076 114.723 49.8032 115.3 48.6127C115.885 47.4222 116.705 46.499 117.76 45.8431C118.815 45.1873 120.052 44.8593 121.47 44.8593C122.632 44.8593 123.652 45.0661 124.528 45.4796C125.412 45.8859 126.136 46.4527 126.699 47.1798C127.27 47.8998 127.665 48.7303 127.886 49.6714L127.929 49.8318H125.94L125.897 49.7141C125.562 48.7303 125.017 47.9711 124.261 47.4364C123.513 46.9018 122.582 46.6344 121.47 46.6344C120.429 46.6344 119.531 46.8875 118.775 47.3937C118.02 47.8927 117.435 48.6056 117.022 49.5323C116.608 50.4591 116.402 51.557 116.402 52.8259V52.8473C116.402 53.8168 116.519 54.6901 116.754 55.4672C116.99 56.2371 117.328 56.8965 117.77 57.4454C118.212 57.9872 118.743 58.4043 119.364 58.6966C119.991 58.9888 120.697 59.135 121.481 59.135C122.393 59.135 123.195 58.9532 123.887 58.5896C124.586 58.2189 125.127 57.7056 125.512 57.0498C125.904 56.3939 126.1 55.6311 126.1 54.7614V54.4406H121.748V52.751H128.025V54.4192C128.025 55.4173 127.872 56.3155 127.565 57.1139C127.266 57.9124 126.831 58.5968 126.261 59.1671C125.691 59.7302 124.999 60.1615 124.186 60.461C123.381 60.7604 122.475 60.9101 121.47 60.9101ZM131.394 60.6V45.1695H140.953V46.9018H133.318V51.8528H140.558V53.5637H133.318V58.8677H140.953V60.6H131.394ZM148.396 60.6V46.9018H143.477V45.1695H155.24V46.9018H150.321V60.6H148.396ZM163.623 60.6V45.1695H165.548V60.6H163.623ZM173.44 60.6V46.9018H168.521V45.1695H180.284V46.9018H175.365V60.6H173.44ZM195.169 60.9101C193.707 60.9101 192.446 60.5822 191.383 59.9263C190.321 59.2704 189.501 58.3437 188.924 57.146C188.354 55.9412 188.068 54.5226 188.068 52.8901V52.8687C188.068 51.229 188.357 49.8104 188.935 48.6127C189.512 47.4151 190.332 46.4919 191.394 45.8431C192.456 45.1873 193.715 44.8593 195.169 44.8593C196.63 44.8593 197.889 45.1873 198.944 45.8431C200.006 46.4919 200.826 47.4151 201.403 48.6127C201.981 49.8104 202.269 51.229 202.269 52.8687V52.8901C202.269 54.5226 201.981 55.9412 201.403 57.146C200.833 58.3437 200.017 59.2704 198.954 59.9263C197.899 60.5822 196.637 60.9101 195.169 60.9101ZM195.169 59.135C196.231 59.135 197.144 58.8783 197.906 58.3651C198.676 57.8447 199.268 57.1175 199.681 56.1836C200.095 55.2497 200.302 54.1519 200.302 52.8901V52.8687C200.302 51.5997 200.091 50.4983 199.671 49.5644C199.257 48.6305 198.666 47.9105 197.896 47.4044C197.133 46.8911 196.224 46.6344 195.169 46.6344C194.121 46.6344 193.212 46.8911 192.442 47.4044C191.679 47.9105 191.088 48.6305 190.667 49.5644C190.246 50.4912 190.036 51.5926 190.036 52.8687V52.8901C190.036 54.1519 190.243 55.2533 190.656 56.1943C191.07 57.1282 191.661 57.8518 192.431 58.3651C193.201 58.8783 194.114 59.135 195.169 59.135ZM205.563 60.6V45.1695H207.434L216.941 58.8035L215.069 57.2636H215.978V45.1695H217.882V60.6H216.01L206.514 46.9873L208.386 48.5272H207.466V60.6H205.563Z" fill="black"/>
<path d="M251.583 98.2403H255.499V71.769H251.583V98.2403ZM286.851 81.3043L282.362 92.7813H282.228L277.569 81.3043H273.352L280.337 97.3446L276.357 106.268H280.438L291.205 81.3043H286.851ZM264.645 95.2334C263.361 95.2334 261.573 94.5876 261.573 92.9846C261.573 90.9433 263.8 90.1598 265.724 90.1598C267.445 90.1598 268.257 90.5346 269.302 91.0449C268.997 93.497 266.905 95.2334 264.645 95.2334ZM265.118 80.7262C262.283 80.7262 259.345 81.9861 258.132 84.7791L261.607 86.2424C262.35 84.7791 263.733 84.3006 265.185 84.3006C267.21 84.3006 269.268 85.5266 269.302 87.7077V87.9787C268.593 87.57 267.075 86.9581 265.218 86.9581C261.473 86.9581 257.658 89.0354 257.658 92.9168C257.658 96.4595 260.73 98.7422 264.171 98.7422C266.805 98.7422 268.257 97.55 269.167 96.1524H269.302V98.1959H273.081V88.0465C273.081 83.3477 269.606 80.7262 265.118 80.7262ZM240.919 84.5272H235.35V75.4535H240.919C243.846 75.4535 245.508 77.8993 245.508 79.9893C245.508 82.0412 243.846 84.5272 240.919 84.5272ZM240.818 71.769H231.436V98.2403H235.35V88.2117H240.818C245.158 88.2117 249.424 85.0396 249.424 79.9893C249.424 74.9389 245.158 71.769 240.818 71.769ZM189.657 95.2377C186.952 95.2377 184.688 92.9528 184.688 89.8146C184.688 86.6426 186.952 84.3217 189.657 84.3217C192.328 84.3217 194.423 86.6426 194.423 89.8146C194.423 92.9528 192.328 95.2377 189.657 95.2377ZM194.154 82.7865H194.018C193.138 81.7299 191.449 80.7749 189.319 80.7749C184.856 80.7749 180.766 84.7304 180.766 89.8146C180.766 94.8628 184.856 98.7866 189.319 98.7866C191.449 98.7866 193.138 97.8316 194.018 96.739H194.154V98.037C194.154 101.482 192.328 103.325 189.386 103.325C186.986 103.325 185.498 101.584 184.89 100.116L181.475 101.55C182.455 103.939 185.06 106.871 189.386 106.871C193.984 106.871 197.872 104.142 197.872 97.4907V81.3191H194.154V82.7865ZM200.577 98.2403H204.499V71.7669H200.577V98.2403ZM210.278 89.5076C210.177 86.0285 212.949 84.254 214.943 84.254C216.5 84.254 217.818 85.0375 218.256 86.164L210.278 89.5076ZM222.449 86.5049C221.706 84.4933 219.44 80.7749 214.809 80.7749C210.211 80.7749 206.392 84.4234 206.392 89.7808C206.392 94.829 210.177 98.7866 215.247 98.7866C219.339 98.7866 221.706 96.2625 222.686 94.7951L219.643 92.7474C218.63 94.2488 217.243 95.2377 215.247 95.2377C213.254 95.2377 211.833 94.3165 210.92 92.5103L222.854 87.5277L222.449 86.5049ZM127.375 83.5383V87.3583H136.433C136.163 89.5076 135.453 91.0767 134.373 92.1672C133.053 93.4992 130.99 94.9666 127.375 94.9666C121.795 94.9666 117.435 90.4287 117.435 84.8003C117.435 79.1698 121.795 74.634 127.375 74.634C130.384 74.634 132.581 75.8283 134.203 77.3635L136.874 74.6679C134.608 72.4847 131.601 70.8119 127.375 70.8119C119.734 70.8119 113.311 77.0904 113.311 84.8003C113.311 92.5103 119.734 98.7866 127.375 98.7866C131.498 98.7866 134.608 97.4208 137.042 94.8628C139.545 92.3387 140.322 88.7919 140.322 85.9247C140.322 85.0375 140.255 84.2201 140.118 83.5383H127.375ZM150.623 95.2377C147.918 95.2377 145.584 92.9867 145.584 89.7808C145.584 86.5388 147.918 84.3217 150.623 84.3217C153.325 84.3217 155.659 86.5388 155.659 89.7808C155.659 92.9867 153.325 95.2377 150.623 95.2377ZM150.623 80.7749C145.685 80.7749 141.663 84.561 141.663 89.7808C141.663 94.9666 145.685 98.7866 150.623 98.7866C155.558 98.7866 159.581 94.9666 159.581 89.7808C159.581 84.561 155.558 80.7749 150.623 80.7749ZM170.165 95.2377C167.46 95.2377 165.127 92.9867 165.127 89.7808C165.127 86.5388 167.46 84.3217 170.165 84.3217C172.87 84.3217 175.201 86.5388 175.201 89.7808C175.201 92.9867 172.87 95.2377 170.165 95.2377ZM170.165 80.7749C165.23 80.7749 161.207 84.561 161.207 89.7808C161.207 94.9666 165.23 98.7866 170.165 98.7866C175.101 98.7866 179.123 94.9666 179.123 89.7808C179.123 84.561 175.101 80.7749 170.165 80.7749Z" fill="black"/>
</g>
</g>
<defs>
<filter id="filter0_ddiiiii_27_1847" x="0" y="0" width="368.357" height="158.923" filterUnits="userSpaceOnUse" color-interpolation-filters="sRGB">
<feFlood flood-opacity="0" result="BackgroundImageFix"/>
<feColorMatrix in="SourceAlpha" type="matrix" values="0 0 0 0 0 0 0 0 0 0 0 0 0 0 0 0 0 0 127 0" result="hardAlpha"/>
<feOffset dy="8.76923"/>
<feGaussianBlur stdDeviation="6.57692"/>
<feComposite in2="hardAlpha" operator="out"/>
<feColorMatrix type="matrix" values="0 0 0 0 0.298039 0 0 0 0 0.0784314 0 0 0 0 0.407843 0 0 0 0.08 0"/>
<feBlend mode="normal" in2="BackgroundImageFix" result="effect1_dropShadow_27_1847"/>
<feColorMatrix in="SourceAlpha" type="matrix" values="0 0 0 0 0 0 0 0 0 0 0 0 0 0 0 0 0 0 127 0" result="hardAlpha"/>
<feOffset dy="4"/>
<feGaussianBlur stdDeviation="8"/>
<feComposite in2="hardAlpha" operator="out"/>
<feColorMatrix type="matrix" values="0 0 0 0 0.980392 0 0 0 0 0.368627 0 0 0 0 0.709804 0 0 0 0.32 0"/>
<feBlend mode="normal" in2="effect1_dropShadow_27_1847" result="effect2_dropShadow_27_1847"/>
<feBlend mode="normal" in="SourceGraphic" in2="BackgroundImageFix" result="shape"/>
<feColorMatrix in="SourceAlpha" type="matrix" values="0 0 0 0 0 0 0 0 0 0 0 0 0 0 0 0 0 0 127 0" result="hardAlpha"/>
<feOffset/>
<feGaussianBlur stdDeviation="36.1731"/>
<feComposite in2="hardAlpha" operator="arithmetic" k2="-1" k3="1"/>
<feColorMatrix type="matrix" values="0 0 0 0 0.94902 0 0 0 0 0.94902 0 0 0 0 0.94902 0 0 0 0.2 0"/>
<feBlend mode="plus-darker" in2="shape" result="effect3_innerShadow_27_1847"/>
<feColorMatrix in="SourceAlpha" type="matrix" values="0 0 0 0 0 0 0 0 0 0 0 0 0 0 0 0 0 0 127 0" result="hardAlpha"/>
<feMorphology radius="6.57692" operator="dilate" in="SourceAlpha" result="effect4_innerShadow_27_1847"/>
<feOffset dx="-2.19231" dy="-2.19231"/>
<feGaussianBlur stdDeviation="1.64423"/>
<feComposite in2="hardAlpha" operator="arithmetic" k2="-1" k3="1"/>
<feColorMatrix type="matrix" values="0 0 0 0 0.701961 0 0 0 0 0.701961 0 0 0 0 0.701961 0 0 0 0.5 0"/>
<feBlend mode="overlay" in2="effect3_innerShadow_27_1847" result="effect4_innerShadow_27_1847"/>
<feColorMatrix in="SourceAlpha" type="matrix" values="0 0 0 0 0 0 0 0 0 0 0 0 0 0 0 0 0 0 127 0" result="hardAlpha"/>
<feMorphology radius="6.57692" operator="dilate" in="SourceAlpha" result="effect5_innerShadow_27_1847"/>
<feOffset dx="2.19231" dy="2.19231"/>
<feGaussianBlur stdDeviation="1.64423"/>
<feComposite in2="hardAlpha" operator="arithmetic" k2="-1" k3="1"/>
<feColorMatrix type="matrix" values="0 0 0 0 0.701961 0 0 0 0 0.701961 0 0 0 0 0.701961 0 0 0 0.1 0"/>
<feBlend mode="plus-lighter" in2="effect4_innerShadow_27_1847" result="effect5_innerShadow_27_1847"/>
<feColorMatrix in="SourceAlpha" type="matrix" values="0 0 0 0 0 0 0 0 0 0 0 0 0 0 0 0 0 0 127 0" result="hardAlpha"/>
<feMorphology radius="11.5096" operator="dilate" in="SourceAlpha" result="effect6_innerShadow_27_1847"/>
<feOffset dx="2.19231" dy="2.19231"/>
<feGaussianBlur stdDeviation="1.64423"/>
<feComposite in2="hardAlpha" operator="arithmetic" k2="-1" k3="1"/>
<feColorMatrix type="matrix" values="0 0 0 0 1 0 0 0 0 1 0 0 0 0 1 0 0 0 0.15 0"/>
<feBlend mode="normal" in2="effect5_innerShadow_27_1847" result="effect6_innerShadow_27_1847"/>
<feColorMatrix in="SourceAlpha" type="matrix" values="0 0 0 0 0 0 0 0 0 0 0 0 0 0 0 0 0 0 127 0" result="hardAlpha"/>
<feMorphology radius="11.5096" operator="dilate" in="SourceAlpha" result="effect7_innerShadow_27_1847"/>
<feOffset dx="-2.19231" dy="-2.19231"/>
<feGaussianBlur stdDeviation="1.64423"/>
<feComposite in2="hardAlpha" operator="arithmetic" k2="-1" k3="1"/>
<feColorMatrix type="matrix" values="0 0 0 0 1 0 0 0 0 1 0 0 0 0 1 0 0 0 0.2 0"/>
<feBlend mode="overlay" in2="effect6_innerShadow_27_1847" result="effect7_innerShadow_27_1847"/>
<feBlend mode="normal" in="effect7_innerShadow_27_1847" in2="effect2_dropShadow_27_1847" result="effect7_innerShadow_27_1847"/>
</filter>
<filter id="filter1_dddd_27_1847" x="17.503" y="14.4024" width="333.351" height="121.994" filterUnits="userSpaceOnUse" color-interpolation-filters="sRGB">
<feFlood flood-opacity="0" result="BackgroundImageFix"/>
<feColorMatrix in="SourceAlpha" type="matrix" values="0 0 0 0 0 0 0 0 0 0 0 0 0 0 0 0 0 0 127 0" result="hardAlpha"/>
<feMorphology radius="0.899408" operator="dilate" in="SourceAlpha" result="effect1_dropShadow_27_1847"/>
<feOffset dy="0.899408"/>
<feGaussianBlur stdDeviation="1.79882"/>
<feComposite in2="hardAlpha" operator="out"/>
<feColorMatrix type="matrix" values="0 0 0 0 0 0 0 0 0 0 0 0 0 0 0 0 0 0 0.12 0"/>
<feBlend mode="normal" in2="BackgroundImageFix" result="effect1_dropShadow_27_1847"/>
<feColorMatrix in="SourceAlpha" type="matrix" values="0 0 0 0 0 0 0 0 0 0 0 0 0 0 0 0 0 0 127 0" result="hardAlpha"/>
<feMorphology radius="1.34911" operator="erode" in="SourceAlpha" result="effect2_dropShadow_27_1847"/>
<feOffset dy="2.69822"/>
<feGaussianBlur stdDeviation="1.46154"/>
<feComposite in2="hardAlpha" operator="out"/>
<feColorMatrix type="matrix" values="0 0 0 0 0 0 0 0 0 0 0 0 0 0 0 0 0 0 0.25 0"/>
<feBlend mode="normal" in2="effect1_dropShadow_27_1847" result="effect2_dropShadow_27_1847"/>
<feColorMatrix in="SourceAlpha" type="matrix" values="0 0 0 0 0 0 0 0 0 0 0 0 0 0 0 0 0 0 127 0" result="hardAlpha"/>
<feMorphology radius="0.674556" operator="dilate" in="SourceAlpha" result="effect3_dropShadow_27_1847"/>
<feOffset/>
<feGaussianBlur stdDeviation="0.112426"/>
<feComposite in2="hardAlpha" operator="out"/>
<feColorMatrix type="matrix" values="0 0 0 0 0 0 0 0 0 0 0 0 0 0 0 0 0 0 0.05 0"/>
<feBlend mode="normal" in2="effect2_dropShadow_27_1847" result="effect3_dropShadow_27_1847"/>
<feColorMatrix in="SourceAlpha" type="matrix" values="0 0 0 0 0 0 0 0 0 0 0 0 0 0 0 0 0 0 127 0" result="hardAlpha"/>
<feMorphology radius="0.224852" operator="dilate" in="SourceAlpha" result="effect4_dropShadow_27_1847"/>
<feOffset/>
<feGaussianBlur stdDeviation="0.112426"/>
<feComposite in2="hardAlpha" operator="out"/>
<feColorMatrix type="matrix" values="0 0 0 0 0 0 0 0 0 0 0 0 0 0 0 0 0 0 0.07 0"/>
<feBlend mode="normal" in2="effect3_dropShadow_27_1847" result="effect4_dropShadow_27_1847"/>
<feBlend mode="normal" in="SourceGraphic" in2="effect4_dropShadow_27_1847" result="shape"/>
</filter>
<linearGradient id="paint0_linear_27_1847" x1="83.7199" y1="126.969" x2="118.034" y2="-50.724" gradientUnits="userSpaceOnUse">
<stop stop-color="#FFCFF3"/>
<stop offset="1" stop-color="#FFF9FC"/>
</linearGradient>
<linearGradient id="paint1_linear_27_1847" x1="184.179" y1="18" x2="184.179" y2="131" gradientUnits="userSpaceOnUse">
<stop stop-color="#F4F4F4"/>
<stop offset="1" stop-color="#FEFEFE"/>
</linearGradient>
<linearGradient id="paint2_linear_27_1847" x1="93.3586" y1="29.3" x2="132.685" y2="178.705" gradientUnits="userSpaceOnUse">
<stop stop-color="#FFB2EB"/>
<stop offset="1" stop-color="#FF51D3"/>
</linearGradient>
</defs>
</svg>
