<svg width="72" height="72" viewBox="0 0 72 72" fill="none" xmlns="http://www.w3.org/2000/svg">
<g filter="url(#filter0_diiiii_179_4954)">
<rect x="6" y="2" width="60" height="60" rx="10" fill="white" fill-opacity="0.08" shape-rendering="crispEdges"/>
<path d="M35.3548 30.2147C33.8727 29.6356 32.7104 28.6137 32.0591 27.1463C32.021 27.06 31.985 26.9729 31.9512 26.8848C31.9173 26.7967 31.8857 26.7078 31.8564 26.6182C31.827 26.5285 31.7998 26.4382 31.775 26.3472C31.75 26.2562 31.7274 26.1646 31.707 26.0725C31.6866 25.9804 31.6685 25.8878 31.6527 25.7948C31.637 25.7018 31.6235 25.6085 31.6123 25.5148C31.6012 25.4211 31.5923 25.3272 31.5858 25.2331C31.5793 25.139 31.5752 25.0448 31.5734 24.9504C31.5716 24.8561 31.5721 24.7618 31.5749 24.6675C31.5778 24.5732 31.583 24.479 31.5905 24.3849C31.598 24.2909 31.6079 24.1971 31.6201 24.1036C31.6322 24.01 31.6467 23.9168 31.6635 23.8239C31.6803 23.7312 31.6994 23.6388 31.7208 23.5469C31.7421 23.455 31.7657 23.3637 31.7916 23.273C31.8175 23.1823 31.8456 23.0922 31.876 23.0029C31.9064 22.9136 31.939 22.8251 31.9737 22.7374C32.0079 22.6505 32.0443 22.5646 32.0828 22.4795C32.1212 22.3944 32.1616 22.3104 32.2042 22.2273C32.2468 22.1442 32.2914 22.0622 32.338 21.9813C32.3846 21.9005 32.4332 21.8209 32.4837 21.7423C32.5342 21.6639 32.5867 21.5867 32.6411 21.5108C32.6954 21.4348 32.7515 21.3603 32.8095 21.2872C32.8675 21.214 32.9273 21.1424 32.9887 21.0722C33.0503 21.002 33.1135 20.9334 33.1784 20.8663C33.2433 20.7991 33.3098 20.7337 33.378 20.6698C33.446 20.6061 33.5156 20.544 33.5868 20.4836C33.658 20.4232 33.7307 20.3646 33.8047 20.3077C33.8787 20.2509 33.9541 20.196 34.031 20.1428C34.1077 20.0897 34.1857 20.0385 34.2649 19.9892C34.3443 19.94 34.4247 19.8927 34.5063 19.8474C34.5879 19.8021 34.6706 19.7588 34.7544 19.7175C34.8381 19.6763 34.9228 19.6371 35.0084 19.6C35.0942 19.563 35.1809 19.5281 35.2686 19.4954C35.3561 19.4627 35.4444 19.4321 35.5334 19.4036C35.6225 19.3752 35.7122 19.349 35.8026 19.325C35.8929 19.301 35.9838 19.2791 36.0752 19.2595C36.1666 19.2399 36.2584 19.2226 36.3507 19.2075C36.4429 19.1924 36.5355 19.1796 36.6284 19.169C36.7213 19.1585 36.8144 19.1502 36.9077 19.1442C37.0009 19.1382 37.0943 19.1345 37.1878 19.133C37.2813 19.1316 37.3747 19.1325 37.4681 19.1356C37.5615 19.1387 37.6548 19.1442 37.748 19.1519C37.8411 19.1596 37.9341 19.1696 38.0268 19.1818C38.1195 19.1941 38.2118 19.2087 38.3037 19.2255C38.3957 19.2422 38.4872 19.2612 38.5783 19.2825C38.6693 19.3038 38.7597 19.3272 38.8496 19.3529C38.9395 19.3786 39.0287 19.4064 39.1172 19.4366C39.2058 19.4666 39.2935 19.4988 39.3804 19.5331C39.4676 19.5676 39.5538 19.6041 39.6393 19.6429C39.7246 19.6816 39.8089 19.7224 39.8923 19.7652C39.9756 19.8081 40.0579 19.853 40.139 19.8998C40.2202 19.9468 40.3002 19.9957 40.3789 20.0465C40.4576 20.0974 40.5351 20.1501 40.6112 20.2048C40.6873 20.2595 40.7621 20.316 40.8354 20.3742C40.9088 20.4326 40.9807 20.4928 41.0511 20.5547C41.1214 20.6166 41.1902 20.6801 41.2575 20.7454C41.3248 20.8107 41.3904 20.8776 41.4544 20.9462C41.5183 21.0146 41.5806 21.0846 41.6411 21.1562C41.7016 21.2278 41.7603 21.3008 41.8172 21.3753C41.8741 21.4497 41.9291 21.5256 41.9823 21.6028C42.0355 21.68 42.0868 21.7585 42.136 21.8382C42.1854 21.9179 42.2327 21.9988 42.278 22.0808C42.3233 22.1628 42.3666 22.2459 42.4079 22.3301C42.4492 22.4143 42.4883 22.4994 42.5253 22.5855C42.5622 22.6722 42.597 22.7597 42.6296 22.8481C42.6623 22.9365 42.6928 23.0257 42.721 23.1156C42.7492 23.2054 42.7752 23.296 42.799 23.3872C42.8228 23.4783 42.8443 23.57 42.8636 23.6622C42.8829 23.7545 42.8999 23.8471 42.9146 23.9402C42.9293 24.0333 42.9417 24.1267 42.9518 24.2203C42.9619 24.314 42.9697 24.4079 42.9753 24.5019C42.9807 24.596 42.9839 24.6901 42.9848 24.7844C42.9856 24.8786 42.9842 24.9727 42.9804 25.0669C42.9766 25.161 42.9705 25.255 42.9621 25.3489C42.9537 25.4428 42.943 25.5364 42.93 25.6297C42.917 25.723 42.9017 25.816 42.8841 25.9085C42.8665 26.001 42.8466 26.0931 42.8245 26.1847C42.8023 26.2763 42.778 26.3673 42.7514 26.4577C42.7248 26.5481 42.696 26.6378 42.665 26.7267C42.634 26.8157 42.6008 26.9039 42.5654 26.9912C42.5292 27.0798 42.4908 27.1674 42.4502 27.254C42.4095 27.3406 42.3667 27.4262 42.3218 27.5107C42.277 27.5952 42.23 27.6785 42.1809 27.7606C42.1318 27.8428 42.0807 27.9237 42.0276 28.0033C41.9746 28.0829 41.9196 28.1611 41.8625 28.238C41.8055 28.3148 41.7466 28.3901 41.6858 28.4641C41.625 28.538 41.5624 28.6103 41.4981 28.681C41.4337 28.7518 41.3675 28.8209 41.2996 28.8884C41.2318 28.9559 41.1624 29.0216 41.0912 29.0856C41.0201 29.1496 40.9473 29.2118 40.8731 29.2721C40.7989 29.3325 40.7232 29.3909 40.6461 29.4475C40.5688 29.5041 40.4903 29.5587 40.4104 29.6113C40.3306 29.664 40.2494 29.7146 40.167 29.7633C40.0845 29.8118 40.0009 29.8584 39.9162 29.9028C39.8314 29.9471 39.7456 29.9894 39.6587 30.0295C39.5719 30.0696 39.4841 30.1076 39.3953 30.1433C39.3306 30.17 39.2658 30.1962 39.2008 30.222C37.8904 30.6387 36.6623 30.6372 35.3548 30.2147Z" fill="white"/>
<path fill-rule="evenodd" clip-rule="evenodd" d="M27.0159 24.848H27.0157C25.8466 24.8404 24.6762 24.8328 23.5098 24.8593L23.5167 37.4424C23.5167 38.0485 23.5125 38.6556 23.5084 39.2629C23.4997 40.5225 23.4911 41.7833 23.5192 43.0398L26.8106 46.3322C26.9817 46.5034 27.1519 46.6781 27.3226 46.8534C27.7176 47.259 28.1153 47.6673 28.5327 48.0396C28.6749 47.2998 28.6484 46.0834 28.6262 45.0687C28.619 44.7371 28.6122 44.4272 28.6119 44.1624C28.6111 43.3057 28.6053 42.4478 28.5995 41.5895C28.5995 41.5893 28.5995 41.5892 28.5995 41.589C28.586 39.5853 28.5725 37.579 28.6217 35.5804C31.6743 37.9934 35.2811 38.9648 39.1387 38.5156C39.1804 38.5109 39.222 38.5057 39.2635 38.5C41.4359 38.1321 43.2947 37.4093 45.1288 36.192C45.7169 35.779 46.2725 35.3263 46.7958 34.8339C49.6389 32.1524 50.9492 28.7062 51.0735 24.8566C49.9242 24.8366 48.7718 24.8428 47.6202 24.8489C47.62 24.8489 47.6198 24.8489 47.6196 24.8489C47.0655 24.8519 46.5116 24.8548 45.9584 24.8549C45.9138 25.6361 45.8445 26.4003 45.6348 27.157C44.9904 29.4829 43.4686 31.2996 41.3863 32.485C39.6948 33.4479 35.2102 33.6239 33.1857 32.4874C31.1223 31.329 29.5971 29.518 28.9447 27.2267C28.7225 26.4459 28.64 25.6636 28.6049 24.8551C28.0759 24.8549 27.5461 24.8514 27.0162 24.848L27.0159 24.848Z" fill="white"/>
<path fill-rule="evenodd" clip-rule="evenodd" d="M35.3548 30.2147C33.8727 29.6356 32.7104 28.6137 32.0591 27.1463C32.021 27.06 31.985 26.9729 31.9512 26.8848C31.9173 26.7967 31.8857 26.7078 31.8564 26.6182C31.827 26.5285 31.7998 26.4382 31.775 26.3472C31.75 26.2562 31.7274 26.1646 31.707 26.0725C31.6866 25.9804 31.6685 25.8878 31.6527 25.7948C31.637 25.7018 31.6235 25.6085 31.6123 25.5148C31.6012 25.4211 31.5923 25.3272 31.5858 25.2331C31.5793 25.139 31.5752 25.0448 31.5734 24.9504C31.5716 24.8561 31.5721 24.7618 31.5749 24.6675C31.5778 24.5732 31.583 24.479 31.5905 24.3849C31.598 24.2909 31.6079 24.1971 31.6201 24.1036C31.6322 24.01 31.6467 23.9168 31.6635 23.8239C31.6803 23.7312 31.6994 23.6388 31.7208 23.5469C31.7421 23.455 31.7657 23.3637 31.7916 23.273C31.8175 23.1823 31.8456 23.0922 31.876 23.0029C31.9064 22.9136 31.939 22.8251 31.9737 22.7374C32.0079 22.6505 32.0443 22.5646 32.0828 22.4795C32.1212 22.3944 32.1616 22.3104 32.2042 22.2273C32.2468 22.1442 32.2914 22.0622 32.338 21.9813C32.3846 21.9005 32.4332 21.8209 32.4837 21.7423C32.5342 21.6639 32.5867 21.5867 32.6411 21.5108C32.6954 21.4348 32.7515 21.3603 32.8095 21.2872C32.8675 21.214 32.9273 21.1424 32.9887 21.0722C33.0503 21.002 33.1135 20.9334 33.1784 20.8663C33.2433 20.7991 33.3098 20.7337 33.378 20.6698C33.446 20.6061 33.5156 20.544 33.5868 20.4836C33.658 20.4232 33.7307 20.3646 33.8047 20.3077C33.8787 20.2509 33.9541 20.196 34.031 20.1428C34.1077 20.0897 34.1857 20.0385 34.2649 19.9892C34.3443 19.94 34.4247 19.8927 34.5063 19.8474C34.5879 19.8021 34.6706 19.7588 34.7544 19.7175C34.8381 19.6763 34.9228 19.6371 35.0084 19.6C35.0942 19.563 35.1809 19.5281 35.2686 19.4954C35.3561 19.4627 35.4444 19.4321 35.5334 19.4036C35.6225 19.3752 35.7122 19.349 35.8026 19.325C35.8929 19.301 35.9838 19.2791 36.0752 19.2595C36.1666 19.2399 36.2584 19.2226 36.3507 19.2075C36.4429 19.1924 36.5355 19.1796 36.6284 19.169C36.7213 19.1585 36.8144 19.1502 36.9077 19.1442C37.0009 19.1382 37.0943 19.1345 37.1878 19.133C37.2813 19.1316 37.3747 19.1325 37.4681 19.1356C37.5615 19.1387 37.6548 19.1442 37.748 19.1519C37.8411 19.1596 37.9341 19.1696 38.0268 19.1818C38.1195 19.1941 38.2118 19.2087 38.3037 19.2255C38.3957 19.2422 38.4872 19.2612 38.5783 19.2825C38.6693 19.3038 38.7597 19.3272 38.8496 19.3529C38.9395 19.3786 39.0287 19.4064 39.1172 19.4366C39.2058 19.4666 39.2935 19.4988 39.3804 19.5331C39.4676 19.5676 39.5538 19.6041 39.6393 19.6429C39.7246 19.6816 39.8089 19.7224 39.8923 19.7652C39.9756 19.8081 40.0579 19.853 40.139 19.8998C40.2202 19.9468 40.3002 19.9957 40.3789 20.0465C40.4576 20.0974 40.5351 20.1501 40.6112 20.2048C40.6873 20.2595 40.7621 20.316 40.8354 20.3742C40.9088 20.4326 40.9807 20.4928 41.0511 20.5547C41.1214 20.6166 41.1902 20.6801 41.2575 20.7454C41.3248 20.8107 41.3904 20.8776 41.4544 20.9462C41.5183 21.0146 41.5806 21.0846 41.6411 21.1562C41.7016 21.2278 41.7603 21.3008 41.8172 21.3753C41.8741 21.4497 41.9291 21.5256 41.9823 21.6028C42.0355 21.68 42.0868 21.7585 42.136 21.8382C42.1854 21.9179 42.2327 21.9988 42.278 22.0808C42.3233 22.1628 42.3666 22.2459 42.4079 22.3301C42.4492 22.4143 42.4883 22.4994 42.5253 22.5855C42.5622 22.6722 42.597 22.7597 42.6296 22.8481C42.6623 22.9365 42.6928 23.0257 42.721 23.1156C42.7492 23.2054 42.7752 23.296 42.799 23.3872C42.8228 23.4783 42.8443 23.57 42.8636 23.6622C42.8829 23.7545 42.8999 23.8471 42.9146 23.9402C42.9293 24.0333 42.9417 24.1267 42.9518 24.2203C42.9619 24.314 42.9697 24.4079 42.9753 24.5019C42.9807 24.596 42.9839 24.6901 42.9848 24.7844C42.9856 24.8786 42.9842 24.9727 42.9804 25.0669C42.9766 25.161 42.9705 25.255 42.9621 25.3489C42.9537 25.4428 42.943 25.5364 42.93 25.6297C42.917 25.723 42.9017 25.816 42.8841 25.9085C42.8665 26.001 42.8466 26.0931 42.8245 26.1847C42.8023 26.2763 42.778 26.3673 42.7514 26.4577C42.7248 26.5481 42.696 26.6378 42.665 26.7267C42.634 26.8157 42.6008 26.9039 42.5654 26.9912C42.5292 27.0798 42.4908 27.1674 42.4502 27.254C42.4095 27.3406 42.3667 27.4262 42.3218 27.5107C42.277 27.5952 42.23 27.6785 42.1809 27.7606C42.1318 27.8428 42.0807 27.9237 42.0276 28.0033C41.9746 28.0829 41.9196 28.1611 41.8625 28.238C41.8055 28.3148 41.7466 28.3901 41.6858 28.4641C41.625 28.538 41.5624 28.6103 41.4981 28.681C41.4337 28.7518 41.3675 28.8209 41.2996 28.8884C41.2318 28.9559 41.1624 29.0216 41.0912 29.0856C41.0201 29.1496 40.9473 29.2118 40.8731 29.2721C40.7989 29.3325 40.7232 29.3909 40.6461 29.4475C40.5688 29.5041 40.4903 29.5587 40.4104 29.6113C40.3306 29.664 40.2494 29.7146 40.167 29.7633C40.0845 29.8118 40.0009 29.8584 39.9162 29.9028C39.8314 29.9471 39.7456 29.9894 39.6587 30.0295C39.5719 30.0696 39.4841 30.1076 39.3953 30.1433C39.3306 30.17 39.2658 30.1962 39.2008 30.222C37.8904 30.6387 36.6623 30.6372 35.3548 30.2147ZM33.1857 32.4874C31.1223 31.329 29.5971 29.518 28.9447 27.2267C28.7225 26.4459 28.64 25.6636 28.6049 24.8551C28.0759 24.8549 27.5461 24.8514 27.0162 24.848L27.0159 24.848H27.0157C25.8466 24.8404 24.6762 24.8328 23.5098 24.8593L23.5167 37.4424C23.5167 38.0485 23.5125 38.6556 23.5084 39.2629C23.4997 40.5225 23.4911 41.7833 23.5192 43.0398L26.8106 46.3322C26.9817 46.5034 27.1519 46.6781 27.3226 46.8534C27.7176 47.259 28.1153 47.6673 28.5327 48.0396C28.6749 47.2998 28.6484 46.0834 28.6262 45.0687C28.619 44.7371 28.6122 44.4272 28.6119 44.1624C28.6111 43.3057 28.6053 42.4478 28.5995 41.5895L28.5995 41.589C28.586 39.5853 28.5725 37.579 28.6217 35.5804C31.6743 37.9934 35.2811 38.9648 39.1387 38.5156C39.1804 38.5109 39.222 38.5057 39.2635 38.5C41.4359 38.1321 43.2947 37.4093 45.1288 36.192C45.7169 35.779 46.2725 35.3263 46.7958 34.8339C49.6389 32.1524 50.9492 28.7062 51.0735 24.8566C49.9242 24.8366 48.7718 24.8428 47.6202 24.8489L47.6196 24.8489C47.0655 24.8519 46.5116 24.8548 45.9584 24.8549C45.9138 25.6361 45.8445 26.4003 45.6348 27.157C44.9904 29.4829 43.4686 31.2996 41.3863 32.485C39.6948 33.4479 35.2102 33.6239 33.1857 32.4874Z" fill="white"/>
</g>
<defs>
<filter id="filter0_diiiii_179_4954" x="0" y="0" width="72" height="72" filterUnits="userSpaceOnUse" color-interpolation-filters="sRGB">
<feFlood flood-opacity="0" result="BackgroundImageFix"/>
<feColorMatrix in="SourceAlpha" type="matrix" values="0 0 0 0 0 0 0 0 0 0 0 0 0 0 0 0 0 0 127 0" result="hardAlpha"/>
<feOffset dy="4"/>
<feGaussianBlur stdDeviation="3"/>
<feComposite in2="hardAlpha" operator="out"/>
<feColorMatrix type="matrix" values="0 0 0 0 0.298039 0 0 0 0 0.0784314 0 0 0 0 0.407843 0 0 0 0.08 0"/>
<feBlend mode="normal" in2="BackgroundImageFix" result="effect1_dropShadow_179_4954"/>
<feBlend mode="normal" in="SourceGraphic" in2="BackgroundImageFix" result="shape"/>
<feColorMatrix in="SourceAlpha" type="matrix" values="0 0 0 0 0 0 0 0 0 0 0 0 0 0 0 0 0 0 127 0" result="hardAlpha"/>
<feOffset/>
<feGaussianBlur stdDeviation="16.5"/>
<feComposite in2="hardAlpha" operator="arithmetic" k2="-1" k3="1"/>
<feColorMatrix type="matrix" values="0 0 0 0 0.94902 0 0 0 0 0.94902 0 0 0 0 0.94902 0 0 0 0.2 0"/>
<feBlend mode="plus-darker" in2="shape" result="effect2_innerShadow_179_4954"/>
<feColorMatrix in="SourceAlpha" type="matrix" values="0 0 0 0 0 0 0 0 0 0 0 0 0 0 0 0 0 0 127 0" result="hardAlpha"/>
<feMorphology radius="3" operator="dilate" in="SourceAlpha" result="effect3_innerShadow_179_4954"/>
<feOffset dx="-1" dy="-1"/>
<feGaussianBlur stdDeviation="0.75"/>
<feComposite in2="hardAlpha" operator="arithmetic" k2="-1" k3="1"/>
<feColorMatrix type="matrix" values="0 0 0 0 0.701961 0 0 0 0 0.701961 0 0 0 0 0.701961 0 0 0 0.5 0"/>
<feBlend mode="overlay" in2="effect2_innerShadow_179_4954" result="effect3_innerShadow_179_4954"/>
<feColorMatrix in="SourceAlpha" type="matrix" values="0 0 0 0 0 0 0 0 0 0 0 0 0 0 0 0 0 0 127 0" result="hardAlpha"/>
<feMorphology radius="3" operator="dilate" in="SourceAlpha" result="effect4_innerShadow_179_4954"/>
<feOffset dx="1" dy="1"/>
<feGaussianBlur stdDeviation="0.75"/>
<feComposite in2="hardAlpha" operator="arithmetic" k2="-1" k3="1"/>
<feColorMatrix type="matrix" values="0 0 0 0 0.701961 0 0 0 0 0.701961 0 0 0 0 0.701961 0 0 0 0.1 0"/>
<feBlend mode="plus-lighter" in2="effect3_innerShadow_179_4954" result="effect4_innerShadow_179_4954"/>
<feColorMatrix in="SourceAlpha" type="matrix" values="0 0 0 0 0 0 0 0 0 0 0 0 0 0 0 0 0 0 127 0" result="hardAlpha"/>
<feMorphology radius="5.25" operator="dilate" in="SourceAlpha" result="effect5_innerShadow_179_4954"/>
<feOffset dx="1" dy="1"/>
<feGaussianBlur stdDeviation="0.75"/>
<feComposite in2="hardAlpha" operator="arithmetic" k2="-1" k3="1"/>
<feColorMatrix type="matrix" values="0 0 0 0 1 0 0 0 0 1 0 0 0 0 1 0 0 0 0.15 0"/>
<feBlend mode="normal" in2="effect4_innerShadow_179_4954" result="effect5_innerShadow_179_4954"/>
<feColorMatrix in="SourceAlpha" type="matrix" values="0 0 0 0 0 0 0 0 0 0 0 0 0 0 0 0 0 0 127 0" result="hardAlpha"/>
<feMorphology radius="5.25" operator="dilate" in="SourceAlpha" result="effect6_innerShadow_179_4954"/>
<feOffset dx="-1" dy="-1"/>
<feGaussianBlur stdDeviation="0.75"/>
<feComposite in2="hardAlpha" operator="arithmetic" k2="-1" k3="1"/>
<feColorMatrix type="matrix" values="0 0 0 0 1 0 0 0 0 1 0 0 0 0 1 0 0 0 0.2 0"/>
<feBlend mode="overlay" in2="effect5_innerShadow_179_4954" result="effect6_innerShadow_179_4954"/>
<feBlend mode="normal" in="effect6_innerShadow_179_4954" in2="effect1_dropShadow_179_4954" result="effect6_innerShadow_179_4954"/>
</filter>
</defs>
</svg>
