<svg width="24" height="24" viewBox="0 0 24 24" fill="none" xmlns="http://www.w3.org/2000/svg">
<path d="M14.6901 10.2138C14.3181 11.6938 12.0017 10.9418 11.2816 10.7389L11.9417 8.13703C12.6858 8.35186 15.0742 8.66218 14.6901 10.2138ZM10.9576 12.0757L10.2375 14.9521C11.1256 15.1789 13.874 16.0501 14.2821 14.4269C14.7141 12.7321 11.8457 12.2905 10.9576 12.0757ZM23.6434 14.8208C22.0352 21.2181 15.5302 25.1091 9.09731 23.5097C2.66438 21.9104 -1.24458 15.4414 0.360053 9.04411C0.741279 7.52366 1.41996 6.09278 2.35734 4.83321C3.29472 3.57363 4.47244 2.51004 5.82322 1.70317C7.17399 0.896297 8.67138 0.361959 10.2298 0.130671C11.7883 -0.100617 13.3773 -0.0243227 14.9061 0.355195C21.3271 1.95453 25.2396 8.42347 23.6434 14.8208ZM14.6541 7.21801L15.1942 5.06965L13.874 4.77127L13.3459 6.83608C12.9979 6.75253 12.6498 6.66898 12.2898 6.59737L12.8178 4.48482L11.5097 4.1745L10.9696 6.31092C10.6815 6.23931 10.3935 6.17963 10.1295 6.10802L8.3172 5.65448L7.95714 7.05091C7.95714 7.05091 8.94129 7.27768 8.91728 7.28962C9.45736 7.42091 9.55337 7.7551 9.52937 8.05348L8.05316 13.9376C7.99315 14.1047 7.80112 14.3195 7.45307 14.2598C7.46507 14.2718 6.49293 14.0211 6.49293 14.0211L5.84484 15.5131L7.54909 15.9427C7.87313 16.0263 8.18518 16.1098 8.49722 16.1814L7.94514 18.3537L9.26533 18.6879L9.80541 16.5276C10.1655 16.623 10.5135 16.7066 10.8496 16.8021L10.3095 18.9385L11.6297 19.2727L12.1817 17.1005C14.4021 17.5182 16.1063 17.3511 16.8024 15.334C17.4025 13.7228 16.8024 12.7679 15.6022 12.1592C16.4664 11.9325 17.1145 11.3954 17.2945 10.2257C17.5345 8.63831 16.3103 7.7909 14.6541 7.21801Z" fill="white" fill-opacity="0.1"/>
<path d="M14.6901 10.2138C14.3181 11.6938 12.0017 10.9418 11.2816 10.7389L11.9417 8.13703C12.6858 8.35186 15.0742 8.66218 14.6901 10.2138ZM10.9576 12.0757L10.2375 14.9521C11.1256 15.1789 13.874 16.0501 14.2821 14.4269C14.7141 12.7321 11.8457 12.2905 10.9576 12.0757ZM23.6434 14.8208C22.0352 21.2181 15.5302 25.1091 9.09731 23.5097C2.66438 21.9104 -1.24458 15.4414 0.360053 9.04411C0.741279 7.52366 1.41996 6.09278 2.35734 4.83321C3.29472 3.57363 4.47244 2.51004 5.82322 1.70317C7.17399 0.896297 8.67138 0.361959 10.2298 0.130671C11.7883 -0.100617 13.3773 -0.0243227 14.9061 0.355195C21.3271 1.95453 25.2396 8.42347 23.6434 14.8208ZM14.6541 7.21801L15.1942 5.06965L13.874 4.77127L13.3459 6.83608C12.9979 6.75253 12.6498 6.66898 12.2898 6.59737L12.8178 4.48482L11.5097 4.1745L10.9696 6.31092C10.6815 6.23931 10.3935 6.17963 10.1295 6.10802L8.3172 5.65448L7.95714 7.05091C7.95714 7.05091 8.94129 7.27768 8.91728 7.28962C9.45736 7.42091 9.55337 7.7551 9.52937 8.05348L8.05316 13.9376C7.99315 14.1047 7.80112 14.3195 7.45307 14.2598C7.46507 14.2718 6.49293 14.0211 6.49293 14.0211L5.84484 15.5131L7.54909 15.9427C7.87313 16.0263 8.18518 16.1098 8.49722 16.1814L7.94514 18.3537L9.26533 18.6879L9.80541 16.5276C10.1655 16.623 10.5135 16.7066 10.8496 16.8021L10.3095 18.9385L11.6297 19.2727L12.1817 17.1005C14.4021 17.5182 16.1063 17.3511 16.8024 15.334C17.4025 13.7228 16.8024 12.7679 15.6022 12.1592C16.4664 11.9325 17.1145 11.3954 17.2945 10.2257C17.5345 8.63831 16.3103 7.7909 14.6541 7.21801Z" fill="url(#paint0_linear_573_1228)"/>
<defs>
<linearGradient id="paint0_linear_573_1228" x1="5.28" y1="2.3869" x2="21.4864" y2="23.9543" gradientUnits="userSpaceOnUse">
<stop stop-color="#FFB2EB"/>
<stop offset="1" stop-color="#FF51D3"/>
</linearGradient>
</defs>
</svg>
