<svg width="24" height="24" viewBox="0 0 24 24" fill="none" xmlns="http://www.w3.org/2000/svg">
<path d="M8.14281 11.1429C9.16578 11.1429 10.1469 10.7365 10.8702 10.0131C11.5936 9.28979 11.9999 8.30871 11.9999 7.28573C11.9999 6.26275 11.5936 5.28167 10.8702 4.55832C10.1469 3.83497 9.16578 3.42859 8.14281 3.42859C7.11983 3.42859 6.13875 3.83497 5.41539 4.55832C4.69204 5.28167 4.28566 6.26275 4.28566 7.28573C4.28566 8.30871 4.69204 9.28979 5.41539 10.0131C6.13875 10.7365 7.11983 11.1429 8.14281 11.1429ZM20.1428 8.14287C20.1428 8.53684 20.0652 8.92695 19.9144 9.29092C19.7637 9.6549 19.5427 9.98562 19.2641 10.2642C18.9855 10.5428 18.6548 10.7637 18.2909 10.9145C17.9269 11.0653 17.5368 11.1429 17.1428 11.1429C16.7488 11.1429 16.3587 11.0653 15.9948 10.9145C15.6308 10.7637 15.3001 10.5428 15.0215 10.2642C14.7429 9.98562 14.5219 9.6549 14.3712 9.29092C14.2204 8.92695 14.1428 8.53684 14.1428 8.14287C14.1428 7.34722 14.4589 6.58416 15.0215 6.02155C15.5841 5.45895 16.3472 5.14287 17.1428 5.14287C17.9385 5.14287 18.7015 5.45895 19.2641 6.02155C19.8267 6.58416 20.1428 7.34722 20.1428 8.14287ZM1.71423 14.7857C1.71423 14.2742 1.91742 13.7837 2.2791 13.422C2.64078 13.0603 3.13132 12.8572 3.6428 12.8572H12.6428C12.8131 12.8577 12.9768 12.8789 13.1339 12.9206C12.504 13.5202 12.0025 14.2418 11.6602 15.0413C11.3179 15.8409 11.1419 16.7017 11.1428 17.5714C11.1428 18.1414 11.2165 18.6934 11.3562 19.2189C10.5205 19.5232 9.46795 19.7143 8.14281 19.7143C1.71423 19.7143 1.71423 15.2143 1.71423 15.2143V14.7857ZM23.1428 17.5714C23.1428 19.0491 22.5558 20.4662 21.511 21.511C20.4661 22.5559 19.049 23.1429 17.5714 23.1429C16.0937 23.1429 14.6766 22.5559 13.6318 21.511C12.5869 20.4662 11.9999 19.0491 11.9999 17.5714C11.9999 16.0938 12.5869 14.6767 13.6318 13.6319C14.6766 12.587 16.0937 12 17.5714 12C19.049 12 20.4661 12.587 21.511 13.6319C22.5558 14.6767 23.1428 16.0938 23.1428 17.5714ZM18.1834 14.1772C18.1457 14.0439 18.0655 13.9266 17.9551 13.843C17.8446 13.7594 17.7099 13.7142 17.5714 13.7142C17.4329 13.7142 17.2982 13.7594 17.1877 13.843C17.0772 13.9266 16.9971 14.0439 16.9594 14.1772L16.3457 16.1469H14.3588C13.7357 16.1469 13.4759 16.9783 13.9808 17.3606L15.5879 18.5777L14.9742 20.5474C14.7814 21.1654 15.4602 21.6789 15.9642 21.2974L17.5714 20.0803L19.1785 21.2974C19.6825 21.6797 20.3614 21.1654 20.1685 20.5474L19.5548 18.5777L21.1619 17.3606C21.6659 16.9792 21.4071 16.1469 20.7839 16.1469H18.7971L18.1834 14.1772Z" fill="white" fill-opacity="0.1"/>
<path d="M8.14281 11.1429C9.16578 11.1429 10.1469 10.7365 10.8702 10.0131C11.5936 9.28979 11.9999 8.30871 11.9999 7.28573C11.9999 6.26275 11.5936 5.28167 10.8702 4.55832C10.1469 3.83497 9.16578 3.42859 8.14281 3.42859C7.11983 3.42859 6.13875 3.83497 5.41539 4.55832C4.69204 5.28167 4.28566 6.26275 4.28566 7.28573C4.28566 8.30871 4.69204 9.28979 5.41539 10.0131C6.13875 10.7365 7.11983 11.1429 8.14281 11.1429ZM20.1428 8.14287C20.1428 8.53684 20.0652 8.92695 19.9144 9.29092C19.7637 9.6549 19.5427 9.98562 19.2641 10.2642C18.9855 10.5428 18.6548 10.7637 18.2909 10.9145C17.9269 11.0653 17.5368 11.1429 17.1428 11.1429C16.7488 11.1429 16.3587 11.0653 15.9948 10.9145C15.6308 10.7637 15.3001 10.5428 15.0215 10.2642C14.7429 9.98562 14.5219 9.6549 14.3712 9.29092C14.2204 8.92695 14.1428 8.53684 14.1428 8.14287C14.1428 7.34722 14.4589 6.58416 15.0215 6.02155C15.5841 5.45895 16.3472 5.14287 17.1428 5.14287C17.9385 5.14287 18.7015 5.45895 19.2641 6.02155C19.8267 6.58416 20.1428 7.34722 20.1428 8.14287ZM1.71423 14.7857C1.71423 14.2742 1.91742 13.7837 2.2791 13.422C2.64078 13.0603 3.13132 12.8572 3.6428 12.8572H12.6428C12.8131 12.8577 12.9768 12.8789 13.1339 12.9206C12.504 13.5202 12.0025 14.2418 11.6602 15.0413C11.3179 15.8409 11.1419 16.7017 11.1428 17.5714C11.1428 18.1414 11.2165 18.6934 11.3562 19.2189C10.5205 19.5232 9.46795 19.7143 8.14281 19.7143C1.71423 19.7143 1.71423 15.2143 1.71423 15.2143V14.7857ZM23.1428 17.5714C23.1428 19.0491 22.5558 20.4662 21.511 21.511C20.4661 22.5559 19.049 23.1429 17.5714 23.1429C16.0937 23.1429 14.6766 22.5559 13.6318 21.511C12.5869 20.4662 11.9999 19.0491 11.9999 17.5714C11.9999 16.0938 12.5869 14.6767 13.6318 13.6319C14.6766 12.587 16.0937 12 17.5714 12C19.049 12 20.4661 12.587 21.511 13.6319C22.5558 14.6767 23.1428 16.0938 23.1428 17.5714ZM18.1834 14.1772C18.1457 14.0439 18.0655 13.9266 17.9551 13.843C17.8446 13.7594 17.7099 13.7142 17.5714 13.7142C17.4329 13.7142 17.2982 13.7594 17.1877 13.843C17.0772 13.9266 16.9971 14.0439 16.9594 14.1772L16.3457 16.1469H14.3588C13.7357 16.1469 13.4759 16.9783 13.9808 17.3606L15.5879 18.5777L14.9742 20.5474C14.7814 21.1654 15.4602 21.6789 15.9642 21.2974L17.5714 20.0803L19.1785 21.2974C19.6825 21.6797 20.3614 21.1654 20.1685 20.5474L19.5548 18.5777L21.1619 17.3606C21.6659 16.9792 21.4071 16.1469 20.7839 16.1469H18.7971L18.1834 14.1772Z" fill="url(#paint0_linear_573_1218)"/>
<defs>
<linearGradient id="paint0_linear_573_1218" x1="6.42852" y1="5.40002" x2="19.4909" y2="24.1918" gradientUnits="userSpaceOnUse">
<stop stop-color="#FFB2EB"/>
<stop offset="1" stop-color="#FF51D3"/>
</linearGradient>
</defs>
</svg>
