<svg width="33" height="33" viewBox="0 0 33 33" fill="none" xmlns="http://www.w3.org/2000/svg">
<path d="M19.7631 13.741C19.2626 15.732 16.1463 14.7204 15.1776 14.4475L16.0656 10.947C17.0667 11.2361 20.2798 11.6535 19.7631 13.741ZM14.7416 16.2458L13.7728 20.1156C14.9677 20.4207 18.6652 21.5928 19.2142 19.4091C19.7954 17.129 15.9364 16.5349 14.7416 16.2458ZM31.8083 19.939C29.6447 28.5455 20.8934 33.7801 12.2389 31.6285C3.58449 29.4768 -1.67437 20.7739 0.484392 12.1674C0.997269 10.1218 1.91033 8.19683 3.17142 6.50228C4.43251 4.80774 6.01693 3.37684 7.83418 2.29133C9.65143 1.20582 11.6659 0.486956 13.7626 0.175796C15.8592 -0.135363 17.997 -0.0327222 20.0538 0.477857C28.6921 2.6295 33.9558 11.3324 31.8083 19.939ZM19.7147 9.71064L20.4413 6.82038L18.6652 6.41895L17.9547 9.19681C17.4865 9.08442 17.0182 8.97202 16.5339 8.87568L17.2443 6.03358L15.4843 5.6161L14.7578 8.49031C14.3702 8.39396 13.9827 8.31368 13.6275 8.21734L11.1894 7.60717L10.705 9.48584C10.705 9.48584 12.029 9.79092 11.9967 9.80698C12.7233 9.98361 12.8525 10.4332 12.8202 10.8346L10.8342 18.7507C10.7535 18.9755 10.4951 19.2646 10.0269 19.1843C10.043 19.2003 8.73517 18.8631 8.73517 18.8631L7.86327 20.8703L10.1561 21.4483C10.592 21.5607 11.0118 21.6731 11.4316 21.7695L10.6889 24.6918L12.465 25.1414L13.1916 22.2351C13.676 22.3636 14.1442 22.476 14.5963 22.6044L13.8697 25.4786L15.6458 25.9282L16.3885 23.0058C19.3756 23.5678 21.6684 23.343 22.6049 20.6294C23.4122 18.4617 22.6049 17.1772 20.9903 16.3582C22.1528 16.0532 23.0247 15.3306 23.2669 13.757C23.5898 11.6214 21.9429 10.4814 19.7147 9.71064Z" fill="#1C1C1C"/>
</svg>
