<svg width="26" height="27" viewBox="0 0 26 27" fill="none" xmlns="http://www.w3.org/2000/svg">
<path d="M11.0646 10.3435C9.68132 9.80303 8.59654 8.84924 7.98861 7.47971C7.95305 7.39918 7.91951 7.31781 7.88797 7.2356C7.85635 7.15339 7.82685 7.07044 7.79947 6.98677C7.77202 6.9031 7.74669 6.81881 7.72347 6.73389C7.70018 6.64891 7.67904 6.56345 7.66006 6.47751C7.641 6.3915 7.6241 6.30509 7.60935 6.21828C7.59468 6.13147 7.58212 6.04437 7.57168 5.95697C7.56124 5.8695 7.55298 5.78185 7.54692 5.69402C7.54086 5.60618 7.537 5.51824 7.53532 5.43019C7.53364 5.34214 7.53411 5.25412 7.53674 5.16614C7.53944 5.07809 7.5443 4.99018 7.55131 4.90242C7.55832 4.81466 7.56751 4.72712 7.5789 4.6398C7.59022 4.55247 7.60373 4.46548 7.61942 4.37882C7.63512 4.29222 7.65294 4.20603 7.67287 4.12025C7.6928 4.03446 7.71485 3.94925 7.73902 3.86463C7.76319 3.77993 7.78943 3.6959 7.81776 3.61252C7.84616 3.52914 7.87657 3.44652 7.90899 3.36468C7.9409 3.28363 7.97481 3.20339 8.01073 3.12396C8.04658 3.04459 8.08437 2.96614 8.12408 2.8886C8.16388 2.81107 8.20549 2.73455 8.24893 2.65905C8.29245 2.58363 8.33779 2.50927 8.38496 2.43597C8.43212 2.36274 8.48108 2.29071 8.53182 2.21988C8.58249 2.14899 8.63488 2.07941 8.68898 2.01115C8.74316 1.94288 8.79894 1.876 8.85632 1.81051C8.91378 1.74502 8.97278 1.68095 9.0333 1.61831C9.0939 1.55566 9.156 1.49455 9.21959 1.43497C9.28312 1.37546 9.3481 1.31753 9.41454 1.26116C9.48098 1.2048 9.54877 1.15008 9.61791 1.097C9.68698 1.04399 9.75737 0.992699 9.82907 0.943124C9.90069 0.893548 9.97348 0.845764 10.0474 0.799767C10.1215 0.753769 10.1966 0.709631 10.2727 0.667356C10.3489 0.625083 10.426 0.584671 10.5042 0.546121C10.5824 0.507643 10.6614 0.4711 10.7414 0.436492C10.8214 0.401958 10.9024 0.369394 10.9841 0.338801C11.0658 0.308283 11.1482 0.279737 11.2313 0.25316C11.3145 0.226657 11.3982 0.202198 11.4826 0.179783C11.5669 0.157369 11.6517 0.136999 11.737 0.118673C11.8223 0.10042 11.908 0.0842457 11.9941 0.0701551C12.0802 0.0560637 12.1666 0.0440874 12.2534 0.0342312C12.34 0.024375 12.4269 0.0166388 12.514 0.0110168C12.601 0.00546837 12.6882 0.0019989 12.7754 0.000612259C12.8627 -0.000701904 12.9499 0.000102043 13.0371 0.00302219C13.1242 0.00594234 13.2113 0.0110149 13.2983 0.0182428C13.3852 0.0254707 13.472 0.0347805 13.5585 0.0461702C13.645 0.0576334 13.7312 0.0712137 13.8169 0.0869122C13.9028 0.102536 13.9882 0.120278 14.0732 0.140138C14.1581 0.159997 14.2425 0.181901 14.3264 0.205849C14.4103 0.229796 14.4936 0.255824 14.5762 0.283934C14.6589 0.31197 14.7408 0.342017 14.8219 0.37407C14.9032 0.406196 14.9838 0.440329 15.0635 0.476469C15.1431 0.51261 15.2218 0.550685 15.2996 0.590696C15.3774 0.630707 15.4542 0.672579 15.5299 0.716312C15.6057 0.76012 15.6803 0.805754 15.7538 0.853211C15.8273 0.900669 15.8996 0.949916 15.9706 1.00095C16.0417 1.05199 16.1114 1.1047 16.1799 1.15909C16.2484 1.21356 16.3155 1.26971 16.3812 1.32753C16.4468 1.38529 16.5111 1.44461 16.5738 1.5055C16.6366 1.56646 16.6979 1.62893 16.7576 1.69289C16.8173 1.75677 16.8753 1.82212 16.9319 1.88892C16.9883 1.95573 17.0431 2.02388 17.0962 2.09339C17.1493 2.1629 17.2007 2.23369 17.2503 2.30575C17.3 2.37781 17.3478 2.45104 17.3938 2.52544C17.4399 2.59984 17.484 2.67533 17.5263 2.75192C17.5686 2.82844 17.609 2.90598 17.6476 2.98454C17.686 3.0631 17.7225 3.14258 17.7571 3.22296C17.7915 3.30386 17.824 3.38556 17.8544 3.46806C17.885 3.55057 17.9134 3.63377 17.9398 3.71766C17.9661 3.80155 17.9904 3.88606 18.0126 3.97119C18.0348 4.05625 18.0549 4.14182 18.0728 4.2279C18.0909 4.31398 18.1067 4.40046 18.1205 4.48735C18.1342 4.57423 18.1458 4.66137 18.1552 4.74877C18.1646 4.83624 18.1719 4.92385 18.1771 5.01161C18.1822 5.09937 18.1852 5.18724 18.186 5.27522C18.1868 5.36313 18.1854 5.45103 18.1819 5.53894C18.1783 5.62678 18.1726 5.7145 18.1648 5.80211C18.1569 5.88973 18.1469 5.97709 18.1348 6.06419C18.1227 6.1513 18.1084 6.23804 18.092 6.32441C18.0756 6.41078 18.057 6.49671 18.0364 6.58221C18.0157 6.66771 17.9929 6.75262 17.9681 6.83695C17.9433 6.92135 17.9164 7.00506 17.8875 7.08808C17.8585 7.17116 17.8275 7.25345 17.7945 7.33493C17.7607 7.41758 17.7249 7.49935 17.687 7.58025C17.649 7.66107 17.6091 7.74092 17.5672 7.81977C17.5253 7.89862 17.4815 7.97638 17.4356 8.05304C17.3899 8.12978 17.3422 8.20527 17.2926 8.27952C17.2431 8.35385 17.1917 8.42686 17.1385 8.49856C17.0853 8.57026 17.0303 8.6406 16.9736 8.7096C16.9169 8.7786 16.8584 8.8461 16.7984 8.9121C16.7383 8.97818 16.6765 9.04268 16.6132 9.10562C16.5499 9.16863 16.485 9.23 16.4187 9.28972C16.3522 9.34944 16.2844 9.40745 16.2151 9.46374C16.1458 9.52011 16.0751 9.57468 16.0031 9.62747C15.9311 9.68026 15.8578 9.73122 15.7832 9.78036C15.7087 9.8295 15.6329 9.87677 15.556 9.92219C15.479 9.96753 15.401 10.0109 15.3219 10.0524C15.2428 10.0938 15.1627 10.1332 15.0817 10.1707C15.0006 10.2081 14.9187 10.2435 14.8358 10.2769C14.7754 10.3018 14.7149 10.3263 14.6542 10.3503C13.4312 10.7393 12.285 10.7379 11.0646 10.3435Z" fill="#FA5EB5"/>
<path fill-rule="evenodd" clip-rule="evenodd" d="M3.28168 5.33458H3.28149C2.1903 5.32749 1.09791 5.32039 0.00933266 5.34518L0.0157919 17.0894C0.0157557 17.6551 0.0118713 18.2217 0.00798607 18.7885C-7.24792e-05 19.9641 -0.00813866 21.1409 0.0180922 22.3136L3.09007 25.3866C3.24976 25.5463 3.40862 25.7094 3.56794 25.873C3.9366 26.2515 4.30774 26.6326 4.69736 26.9801C4.8301 26.2896 4.8053 25.1543 4.78461 24.2072C4.77785 23.8978 4.77153 23.6085 4.77129 23.3614C4.7705 22.5618 4.76511 21.7611 4.75972 20.96C4.75972 20.9599 4.75972 20.9597 4.75972 20.9596C4.74713 19.0894 4.73453 17.2169 4.78038 15.3515C7.62949 17.6037 10.9959 18.5102 14.5963 18.091C14.6352 18.0866 14.674 18.0818 14.7128 18.0764C16.7403 17.7331 18.4752 17.0585 20.1871 15.9223C20.7359 15.5369 21.2545 15.1144 21.7429 14.6548C24.3965 12.1521 25.6194 8.93563 25.7355 5.34267C24.6628 5.32396 23.5872 5.32971 22.5124 5.33546C22.5122 5.33546 22.512 5.33546 22.5118 5.33546C21.9947 5.33822 21.4777 5.34099 20.9613 5.34102C20.9197 6.07019 20.855 6.78338 20.6593 7.48966C20.0578 9.66053 18.6375 11.3561 16.6941 12.4624C15.1153 13.3612 10.9297 13.5255 9.04019 12.4647C7.11432 11.3836 5.6908 9.69327 5.08188 7.55471C4.87445 6.82598 4.79746 6.09582 4.76472 5.34124C4.27098 5.34101 3.77656 5.3378 3.28192 5.33458L3.28168 5.33458Z" fill="#FA5EB5"/>
<path fill-rule="evenodd" clip-rule="evenodd" d="M11.0646 10.3435C9.68132 9.80303 8.59654 8.84924 7.98861 7.47971C7.95305 7.39918 7.91951 7.31781 7.88797 7.2356C7.85635 7.15339 7.82685 7.07044 7.79947 6.98677C7.77202 6.9031 7.74669 6.81881 7.72347 6.73389C7.70018 6.64891 7.67904 6.56345 7.66006 6.47751C7.641 6.3915 7.6241 6.30509 7.60935 6.21828C7.59468 6.13147 7.58212 6.04437 7.57168 5.95697C7.56124 5.8695 7.55298 5.78185 7.54692 5.69402C7.54086 5.60618 7.537 5.51824 7.53532 5.43019C7.53364 5.34214 7.53411 5.25412 7.53674 5.16614C7.53944 5.07809 7.5443 4.99018 7.55131 4.90242C7.55832 4.81466 7.56751 4.72712 7.5789 4.6398C7.59022 4.55247 7.60373 4.46548 7.61942 4.37882C7.63512 4.29222 7.65294 4.20603 7.67287 4.12025C7.6928 4.03446 7.71485 3.94925 7.73902 3.86463C7.76319 3.77993 7.78943 3.6959 7.81776 3.61252C7.84616 3.52914 7.87657 3.44652 7.90899 3.36468C7.9409 3.28363 7.97481 3.20339 8.01073 3.12396C8.04658 3.04459 8.08437 2.96614 8.12408 2.8886C8.16388 2.81107 8.20549 2.73455 8.24893 2.65905C8.29245 2.58363 8.33779 2.50927 8.38496 2.43597C8.43212 2.36274 8.48108 2.29071 8.53182 2.21988C8.58249 2.14899 8.63488 2.07941 8.68898 2.01115C8.74316 1.94288 8.79894 1.876 8.85632 1.81051C8.91378 1.74502 8.97278 1.68095 9.0333 1.61831C9.0939 1.55566 9.156 1.49455 9.21959 1.43497C9.28312 1.37546 9.3481 1.31753 9.41454 1.26116C9.48098 1.2048 9.54877 1.15008 9.61791 1.097C9.68698 1.04399 9.75737 0.992699 9.82907 0.943124C9.90069 0.893548 9.97348 0.845764 10.0474 0.799767C10.1215 0.753769 10.1966 0.709631 10.2727 0.667356C10.3489 0.625083 10.426 0.584671 10.5042 0.546121C10.5824 0.507643 10.6614 0.4711 10.7414 0.436492C10.8214 0.401958 10.9024 0.369394 10.9841 0.338801C11.0658 0.308283 11.1482 0.279737 11.2313 0.25316C11.3145 0.226657 11.3982 0.202198 11.4826 0.179783C11.5669 0.157369 11.6517 0.136999 11.737 0.118673C11.8223 0.10042 11.908 0.0842457 11.9941 0.0701551C12.0802 0.0560637 12.1666 0.0440874 12.2534 0.0342312C12.34 0.024375 12.4269 0.0166388 12.514 0.0110168C12.601 0.00546837 12.6882 0.0019989 12.7754 0.000612259C12.8627 -0.000701904 12.9499 0.000102043 13.0371 0.00302219C13.1242 0.00594234 13.2113 0.0110149 13.2983 0.0182428C13.3852 0.0254707 13.472 0.0347805 13.5585 0.0461702C13.645 0.0576334 13.7312 0.0712137 13.8169 0.0869122C13.9028 0.102536 13.9882 0.120278 14.0732 0.140138C14.1581 0.159997 14.2425 0.181901 14.3264 0.205849C14.4103 0.229796 14.4936 0.255824 14.5762 0.283934C14.6589 0.31197 14.7408 0.342017 14.8219 0.37407C14.9032 0.406196 14.9838 0.440329 15.0635 0.476469C15.1431 0.51261 15.2218 0.550685 15.2996 0.590696C15.3774 0.630707 15.4542 0.672579 15.5299 0.716312C15.6057 0.76012 15.6803 0.805754 15.7538 0.853211C15.8273 0.900669 15.8996 0.949916 15.9706 1.00095C16.0417 1.05199 16.1114 1.1047 16.1799 1.15909C16.2484 1.21356 16.3155 1.26971 16.3812 1.32753C16.4468 1.38529 16.5111 1.44461 16.5738 1.5055C16.6366 1.56646 16.6979 1.62893 16.7576 1.69289C16.8173 1.75677 16.8753 1.82212 16.9319 1.88892C16.9883 1.95573 17.0431 2.02388 17.0962 2.09339C17.1493 2.1629 17.2007 2.23369 17.2503 2.30575C17.3 2.37781 17.3478 2.45104 17.3938 2.52544C17.4399 2.59984 17.484 2.67533 17.5263 2.75192C17.5686 2.82844 17.609 2.90598 17.6476 2.98454C17.686 3.0631 17.7225 3.14258 17.7571 3.22296C17.7915 3.30386 17.824 3.38556 17.8544 3.46806C17.885 3.55057 17.9134 3.63377 17.9398 3.71766C17.9661 3.80155 17.9904 3.88606 18.0126 3.97119C18.0348 4.05625 18.0549 4.14182 18.0728 4.2279C18.0909 4.31398 18.1067 4.40046 18.1205 4.48735C18.1342 4.57423 18.1458 4.66137 18.1552 4.74877C18.1646 4.83624 18.1719 4.92385 18.1771 5.01161C18.1822 5.09937 18.1852 5.18724 18.186 5.27522C18.1868 5.36313 18.1854 5.45103 18.1819 5.53894C18.1783 5.62678 18.1726 5.7145 18.1648 5.80211C18.1569 5.88973 18.1469 5.97709 18.1348 6.06419C18.1227 6.1513 18.1084 6.23804 18.092 6.32441C18.0756 6.41078 18.057 6.49671 18.0364 6.58221C18.0157 6.66771 17.9929 6.75262 17.9681 6.83695C17.9433 6.92135 17.9164 7.00506 17.8875 7.08808C17.8585 7.17116 17.8275 7.25345 17.7945 7.33493C17.7607 7.41758 17.7249 7.49935 17.687 7.58025C17.649 7.66107 17.6091 7.74092 17.5672 7.81977C17.5253 7.89862 17.4815 7.97638 17.4356 8.05304C17.3899 8.12978 17.3422 8.20527 17.2926 8.27952C17.2431 8.35385 17.1917 8.42686 17.1385 8.49856C17.0853 8.57026 17.0303 8.6406 16.9736 8.7096C16.9169 8.7786 16.8584 8.8461 16.7984 8.9121C16.7383 8.97818 16.6765 9.04268 16.6132 9.10562C16.5499 9.16863 16.485 9.23 16.4187 9.28972C16.3522 9.34944 16.2844 9.40745 16.2151 9.46374C16.1458 9.52011 16.0751 9.57468 16.0031 9.62747C15.9311 9.68026 15.8578 9.73122 15.7832 9.78036C15.7087 9.8295 15.6329 9.87677 15.556 9.92219C15.479 9.96753 15.401 10.0109 15.3219 10.0524C15.2428 10.0938 15.1627 10.1332 15.0817 10.1707C15.0006 10.2081 14.9187 10.2435 14.8358 10.2769C14.7754 10.3018 14.7149 10.3263 14.6542 10.3503C13.4312 10.7393 12.285 10.7379 11.0646 10.3435ZM9.04019 12.4647C7.11432 11.3836 5.6908 9.69327 5.08188 7.55471C4.87445 6.82598 4.79746 6.09582 4.76472 5.34124C4.27098 5.34101 3.77656 5.3378 3.28192 5.33458L3.28168 5.33458H3.28149C2.1903 5.32749 1.09791 5.32039 0.00933266 5.34518L0.0157919 17.0894C0.0157557 17.6551 0.0118713 18.2217 0.00798607 18.7885C-7.24792e-05 19.9641 -0.00813866 21.1409 0.0180922 22.3136L3.09007 25.3866C3.24976 25.5463 3.40862 25.7094 3.56794 25.873C3.9366 26.2515 4.30774 26.6326 4.69736 26.9801C4.8301 26.2896 4.8053 25.1543 4.78461 24.2072C4.77785 23.8978 4.77153 23.6085 4.77129 23.3614C4.7705 22.5618 4.76511 21.7611 4.75972 20.96L4.75972 20.9596C4.74713 19.0894 4.73453 17.2169 4.78038 15.3515C7.62949 17.6037 10.9959 18.5102 14.5963 18.091C14.6352 18.0866 14.674 18.0818 14.7128 18.0764C16.7403 17.7331 18.4752 17.0585 20.1871 15.9223C20.7359 15.5369 21.2545 15.1144 21.7429 14.6548C24.3965 12.1521 25.6194 8.93563 25.7355 5.34267C24.6628 5.32396 23.5872 5.32971 22.5124 5.33546L22.5118 5.33546C21.9947 5.33822 21.4777 5.34099 20.9613 5.34102C20.9197 6.07019 20.855 6.78338 20.6593 7.48966C20.0578 9.66053 18.6375 11.3561 16.6941 12.4624C15.1153 13.3612 10.9297 13.5255 9.04019 12.4647Z" fill="#FA5EB5"/>
</svg>
