<svg width="28" height="29" viewBox="0 0 28 29" fill="none" xmlns="http://www.w3.org/2000/svg">
<path d="M11.8548 11.0823C10.3727 10.5032 9.21041 9.48132 8.55905 8.01397C8.52095 7.92769 8.48501 7.84051 8.45122 7.75242C8.41735 7.66434 8.38574 7.57547 8.35641 7.48582C8.32699 7.39617 8.29984 7.30586 8.27497 7.21488C8.25002 7.12383 8.22737 7.03226 8.20703 6.94019C8.18661 6.84804 8.1685 6.75546 8.1527 6.66244C8.13698 6.56943 8.12353 6.47611 8.11234 6.38247C8.10115 6.28875 8.09231 6.19484 8.08582 6.10073C8.07932 6.00662 8.07518 5.9124 8.07338 5.81806C8.07158 5.72372 8.07209 5.62941 8.07491 5.53515C8.0778 5.44081 8.083 5.34662 8.09051 5.25259C8.09802 5.15856 8.10788 5.06477 8.12008 4.97121C8.1322 4.87765 8.14668 4.78444 8.1635 4.69159C8.18032 4.59881 8.1994 4.50646 8.22076 4.41455C8.24212 4.32263 8.26574 4.23134 8.29163 4.14067C8.31753 4.04993 8.34565 3.95989 8.376 3.87055C8.40643 3.78122 8.43901 3.6927 8.47375 3.60501C8.50793 3.51818 8.54427 3.43221 8.58275 3.3471C8.62116 3.26206 8.66165 3.17801 8.7042 3.09493C8.74684 3.01185 8.79143 2.92987 8.83797 2.84898C8.88459 2.76818 8.93317 2.6885 8.98371 2.60996C9.03424 2.5315 9.0867 2.45433 9.14107 2.37844C9.19536 2.30249 9.25148 2.22794 9.30945 2.1548C9.36749 2.08166 9.42726 2.01 9.48874 1.93983C9.55031 1.86966 9.61352 1.80101 9.67837 1.7339C9.74329 1.66678 9.80983 1.6013 9.87796 1.53746C9.94602 1.47371 10.0156 1.41164 10.0868 1.35124C10.158 1.29085 10.2307 1.23222 10.3047 1.17535C10.3787 1.11856 10.4541 1.0636 10.531 1.01049C10.6077 0.957371 10.6857 0.906174 10.7649 0.85689C10.8443 0.807607 10.9247 0.760316 11.0063 0.715022C11.0879 0.669729 11.1706 0.626431 11.2544 0.585127C11.3381 0.5439 11.4228 0.504747 11.5084 0.467668C11.5942 0.430666 11.6809 0.395777 11.7686 0.363C11.8561 0.3303 11.9444 0.299715 12.0334 0.271241C12.1225 0.242845 12.2122 0.216638 12.3026 0.192622C12.3929 0.168607 12.4838 0.146782 12.5752 0.127147C12.6666 0.107591 12.7584 0.0902615 12.8507 0.0751629C12.9429 0.0600653 13.0355 0.0472345 13.1284 0.0366735C13.2213 0.0261135 13.3144 0.0178251 13.4077 0.0118017C13.5009 0.00585556 13.5943 0.00213909 13.6878 0.000653267C13.7813 -0.00075531 13.8747 0.000106812 13.9681 0.00323582C14.0615 0.00636482 14.1548 0.0117989 14.248 0.0195436C14.3411 0.0272875 14.4341 0.0372629 14.5268 0.0494661C14.6195 0.0617476 14.7118 0.0762987 14.8037 0.0931168C14.8957 0.109858 14.9872 0.128867 15.0783 0.150145C15.1693 0.171423 15.2597 0.194891 15.3496 0.22055C15.4395 0.246208 15.5287 0.274095 15.6172 0.304212C15.7058 0.334251 15.7935 0.366445 15.8804 0.400786C15.9676 0.435206 16.0538 0.471778 16.1393 0.5105C16.2246 0.549223 16.3089 0.590017 16.3923 0.632886C16.4756 0.675755 16.5579 0.720617 16.639 0.767475C16.7202 0.814412 16.8002 0.863305 16.8789 0.914153C16.9576 0.965 17.0351 1.01777 17.1112 1.07245C17.1873 1.12713 17.2621 1.18361 17.3354 1.24189C17.4088 1.30024 17.4807 1.3604 17.5511 1.42235C17.6214 1.48423 17.6902 1.54779 17.7575 1.61303C17.8248 1.67835 17.8904 1.74528 17.9544 1.8138C18.0183 1.88225 18.0806 1.95227 18.1411 2.02384C18.2016 2.09542 18.2603 2.16844 18.3172 2.24292C18.3741 2.31739 18.4291 2.39323 18.4823 2.47044C18.5355 2.54765 18.5868 2.62611 18.636 2.70583C18.6854 2.78554 18.7327 2.86643 18.778 2.94849C18.8233 3.03047 18.8666 3.11355 18.9079 3.19772C18.9492 3.2819 18.9883 3.36705 19.0253 3.45317C19.0622 3.53985 19.097 3.62738 19.1296 3.71578C19.1623 3.80418 19.1928 3.89332 19.221 3.9832C19.2492 4.07308 19.2752 4.16363 19.299 4.25485C19.3228 4.34598 19.3443 4.43766 19.3636 4.52989C19.3829 4.62212 19.3999 4.71478 19.4146 4.80787C19.4293 4.90096 19.4417 4.99433 19.4518 5.08796C19.4619 5.18168 19.4697 5.27555 19.4753 5.36959C19.4807 5.46361 19.4839 5.55776 19.4848 5.65202C19.4856 5.74621 19.4842 5.84039 19.4804 5.93458C19.4766 6.02868 19.4705 6.12268 19.4621 6.21655C19.4537 6.31042 19.443 6.40402 19.43 6.49735C19.417 6.59067 19.4017 6.68361 19.3841 6.77615C19.3665 6.86869 19.3466 6.96076 19.3245 7.05237C19.3023 7.14397 19.278 7.23495 19.2514 7.3253C19.2248 7.41573 19.196 7.50542 19.165 7.59437C19.134 7.68339 19.1008 7.77155 19.0654 7.85885C19.0292 7.9474 18.9908 8.03502 18.9502 8.12169C18.9095 8.20829 18.8667 8.29383 18.8218 8.37832C18.777 8.46281 18.73 8.54612 18.6809 8.62826C18.6318 8.71047 18.5807 8.79136 18.5276 8.87091C18.4746 8.95055 18.4196 9.02878 18.3625 9.1056C18.3055 9.18242 18.2466 9.25779 18.1858 9.33171C18.125 9.40564 18.0624 9.47796 17.9981 9.54868C17.9337 9.61947 17.8675 9.68858 17.7996 9.75602C17.7318 9.82353 17.6624 9.88928 17.5912 9.95327C17.5201 10.0173 17.4473 10.0794 17.3731 10.1397C17.2989 10.2001 17.2232 10.2586 17.1461 10.3151C17.0688 10.3717 16.9903 10.4263 16.9104 10.479C16.8306 10.5316 16.7494 10.5823 16.667 10.6309C16.5845 10.6795 16.5009 10.726 16.4162 10.7704C16.3314 10.8148 16.2456 10.857 16.1587 10.8972C16.0719 10.9373 15.9841 10.9752 15.8953 11.011C15.8306 11.0377 15.7658 11.0639 15.7008 11.0896C14.3904 11.5064 13.1623 11.5049 11.8548 11.0823Z" fill="white"/>
<path fill-rule="evenodd" clip-rule="evenodd" d="M3.51591 5.71562H3.51571C2.34658 5.70802 1.17616 5.70042 0.00982475 5.72698L0.0167456 18.31C0.0167074 18.9162 0.0125456 19.5232 0.0083828 20.1306C-0.000250816 21.3901 -0.00889397 22.651 0.0192099 23.9074L3.31062 27.1999C3.48171 27.371 3.65191 27.5458 3.82261 27.7211C4.21761 28.1267 4.61526 28.535 5.03271 28.9072C5.17493 28.1675 5.14836 26.951 5.12619 25.9363C5.11895 25.6048 5.11218 25.2948 5.11192 25.03C5.11108 24.1734 5.1053 23.3155 5.09953 22.4571C5.09953 22.457 5.09953 22.4568 5.09952 22.4567C5.08604 20.4529 5.07254 18.4467 5.12166 16.4481C8.17428 18.8611 11.7811 19.8324 15.6387 19.3832C15.6804 19.3785 15.722 19.3733 15.7635 19.3676C17.9359 18.9998 19.7947 18.2769 21.6288 17.0596C22.2169 16.6467 22.7725 16.194 23.2958 15.7015C26.1389 13.0201 27.4492 9.57388 27.5735 5.72428C26.4242 5.70424 25.2718 5.7104 24.1202 5.71656C24.12 5.71656 24.1198 5.71656 24.1196 5.71656C23.5655 5.71952 23.0116 5.72248 22.4584 5.72252C22.4138 6.50378 22.3445 7.2679 22.1348 8.02463C21.4904 10.3506 19.9686 12.1672 17.8863 13.3526C16.1948 14.3156 11.7102 14.4916 9.68575 13.3551C7.62231 12.1967 6.09711 10.3856 5.4447 8.09433C5.22246 7.31355 5.13997 6.53124 5.10488 5.72276C4.57588 5.7225 4.04614 5.71906 3.51616 5.71562L3.51591 5.71562Z" fill="white"/>
<path fill-rule="evenodd" clip-rule="evenodd" d="M11.8548 11.0823C10.3727 10.5032 9.21041 9.48132 8.55905 8.01397C8.52095 7.92769 8.48501 7.84051 8.45122 7.75242C8.41735 7.66434 8.38574 7.57547 8.35641 7.48582C8.32699 7.39617 8.29984 7.30586 8.27497 7.21488C8.25002 7.12383 8.22737 7.03226 8.20703 6.94019C8.18661 6.84804 8.1685 6.75546 8.1527 6.66244C8.13698 6.56943 8.12353 6.47611 8.11234 6.38247C8.10115 6.28875 8.09231 6.19484 8.08582 6.10073C8.07932 6.00662 8.07518 5.9124 8.07338 5.81806C8.07158 5.72372 8.07209 5.62941 8.07491 5.53515C8.0778 5.44081 8.083 5.34662 8.09051 5.25259C8.09802 5.15856 8.10788 5.06477 8.12008 4.97121C8.1322 4.87765 8.14668 4.78444 8.1635 4.69159C8.18032 4.59881 8.1994 4.50646 8.22076 4.41455C8.24212 4.32263 8.26574 4.23134 8.29163 4.14067C8.31753 4.04993 8.34565 3.95989 8.376 3.87055C8.40643 3.78122 8.43901 3.6927 8.47375 3.60501C8.50793 3.51818 8.54427 3.43221 8.58275 3.3471C8.62116 3.26206 8.66165 3.17801 8.7042 3.09493C8.74684 3.01185 8.79143 2.92987 8.83797 2.84898C8.88459 2.76818 8.93317 2.6885 8.98371 2.60996C9.03424 2.5315 9.0867 2.45433 9.14107 2.37844C9.19536 2.30249 9.25148 2.22794 9.30945 2.1548C9.36749 2.08166 9.42726 2.01 9.48874 1.93983C9.55031 1.86966 9.61352 1.80101 9.67837 1.7339C9.74329 1.66678 9.80983 1.6013 9.87796 1.53746C9.94602 1.47371 10.0156 1.41164 10.0868 1.35124C10.158 1.29085 10.2307 1.23222 10.3047 1.17535C10.3787 1.11856 10.4541 1.0636 10.531 1.01049C10.6077 0.957371 10.6857 0.906174 10.7649 0.85689C10.8443 0.807607 10.9247 0.760316 11.0063 0.715022C11.0879 0.669729 11.1706 0.626431 11.2544 0.585127C11.3381 0.5439 11.4228 0.504747 11.5084 0.467668C11.5942 0.430666 11.6809 0.395777 11.7686 0.363C11.8561 0.3303 11.9444 0.299715 12.0334 0.271241C12.1225 0.242845 12.2122 0.216638 12.3026 0.192622C12.3929 0.168607 12.4838 0.146782 12.5752 0.127147C12.6666 0.107591 12.7584 0.0902615 12.8507 0.0751629C12.9429 0.0600653 13.0355 0.0472345 13.1284 0.0366735C13.2213 0.0261135 13.3144 0.0178251 13.4077 0.0118017C13.5009 0.00585556 13.5943 0.00213909 13.6878 0.000653267C13.7813 -0.00075531 13.8747 0.000106812 13.9681 0.00323582C14.0615 0.00636482 14.1548 0.0117989 14.248 0.0195436C14.3411 0.0272875 14.4341 0.0372629 14.5268 0.0494661C14.6195 0.0617476 14.7118 0.0762987 14.8037 0.0931168C14.8957 0.109858 14.9872 0.128867 15.0783 0.150145C15.1693 0.171423 15.2597 0.194891 15.3496 0.22055C15.4395 0.246208 15.5287 0.274095 15.6172 0.304212C15.7058 0.334251 15.7935 0.366445 15.8804 0.400786C15.9676 0.435206 16.0538 0.471778 16.1393 0.5105C16.2246 0.549223 16.3089 0.590017 16.3923 0.632886C16.4756 0.675755 16.5579 0.720617 16.639 0.767475C16.7202 0.814412 16.8002 0.863305 16.8789 0.914153C16.9576 0.965 17.0351 1.01777 17.1112 1.07245C17.1873 1.12713 17.2621 1.18361 17.3354 1.24189C17.4088 1.30024 17.4807 1.3604 17.5511 1.42235C17.6214 1.48423 17.6902 1.54779 17.7575 1.61303C17.8248 1.67835 17.8904 1.74528 17.9544 1.8138C18.0183 1.88225 18.0806 1.95227 18.1411 2.02384C18.2016 2.09542 18.2603 2.16844 18.3172 2.24292C18.3741 2.31739 18.4291 2.39323 18.4823 2.47044C18.5355 2.54765 18.5868 2.62611 18.636 2.70583C18.6854 2.78554 18.7327 2.86643 18.778 2.94849C18.8233 3.03047 18.8666 3.11355 18.9079 3.19772C18.9492 3.2819 18.9883 3.36705 19.0253 3.45317C19.0622 3.53985 19.097 3.62738 19.1296 3.71578C19.1623 3.80418 19.1928 3.89332 19.221 3.9832C19.2492 4.07308 19.2752 4.16363 19.299 4.25485C19.3228 4.34598 19.3443 4.43766 19.3636 4.52989C19.3829 4.62212 19.3999 4.71478 19.4146 4.80787C19.4293 4.90096 19.4417 4.99433 19.4518 5.08796C19.4619 5.18168 19.4697 5.27555 19.4753 5.36959C19.4807 5.46361 19.4839 5.55776 19.4848 5.65202C19.4856 5.74621 19.4842 5.84039 19.4804 5.93458C19.4766 6.02868 19.4705 6.12268 19.4621 6.21655C19.4537 6.31042 19.443 6.40402 19.43 6.49735C19.417 6.59067 19.4017 6.68361 19.3841 6.77615C19.3665 6.86869 19.3466 6.96076 19.3245 7.05237C19.3023 7.14397 19.278 7.23495 19.2514 7.3253C19.2248 7.41573 19.196 7.50542 19.165 7.59437C19.134 7.68339 19.1008 7.77155 19.0654 7.85885C19.0292 7.9474 18.9908 8.03502 18.9502 8.12169C18.9095 8.20829 18.8667 8.29383 18.8218 8.37832C18.777 8.46281 18.73 8.54612 18.6809 8.62826C18.6318 8.71047 18.5807 8.79136 18.5276 8.87091C18.4746 8.95055 18.4196 9.02878 18.3625 9.1056C18.3055 9.18242 18.2466 9.25779 18.1858 9.33171C18.125 9.40564 18.0624 9.47796 17.9981 9.54868C17.9337 9.61947 17.8675 9.68858 17.7996 9.75602C17.7318 9.82353 17.6624 9.88928 17.5912 9.95327C17.5201 10.0173 17.4473 10.0794 17.3731 10.1397C17.2989 10.2001 17.2232 10.2586 17.1461 10.3151C17.0688 10.3717 16.9903 10.4263 16.9104 10.479C16.8306 10.5316 16.7494 10.5823 16.667 10.6309C16.5845 10.6795 16.5009 10.726 16.4162 10.7704C16.3314 10.8148 16.2456 10.857 16.1587 10.8972C16.0719 10.9373 15.9841 10.9752 15.8953 11.011C15.8306 11.0377 15.7658 11.0639 15.7008 11.0896C14.3904 11.5064 13.1623 11.5049 11.8548 11.0823ZM9.68575 13.3551C7.62231 12.1967 6.09711 10.3856 5.4447 8.09433C5.22246 7.31355 5.13997 6.53124 5.10488 5.72276C4.57588 5.7225 4.04614 5.71906 3.51616 5.71562L3.51591 5.71562H3.51571C2.34658 5.70802 1.17616 5.70042 0.00982475 5.72698L0.0167456 18.31C0.0167074 18.9162 0.0125456 19.5232 0.0083828 20.1306C-0.000250816 21.3901 -0.00889397 22.651 0.0192099 23.9074L3.31062 27.1999C3.48171 27.371 3.65191 27.5458 3.82261 27.7211C4.21761 28.1267 4.61526 28.535 5.03271 28.9072C5.17493 28.1675 5.14836 26.951 5.12619 25.9363C5.11895 25.6048 5.11218 25.2948 5.11192 25.03C5.11108 24.1734 5.1053 23.3155 5.09953 22.4571L5.09952 22.4567C5.08604 20.4529 5.07254 18.4467 5.12166 16.4481C8.17428 18.8611 11.7811 19.8324 15.6387 19.3832C15.6804 19.3785 15.722 19.3733 15.7635 19.3676C17.9359 18.9998 19.7947 18.2769 21.6288 17.0596C22.2169 16.6467 22.7725 16.194 23.2958 15.7015C26.1389 13.0201 27.4492 9.57388 27.5735 5.72428C26.4242 5.70424 25.2718 5.7104 24.1202 5.71656L24.1196 5.71656C23.5655 5.71952 23.0116 5.72248 22.4584 5.72252C22.4138 6.50378 22.3445 7.2679 22.1348 8.02463C21.4904 10.3506 19.9686 12.1672 17.8863 13.3526C16.1948 14.3156 11.7102 14.4916 9.68575 13.3551Z" fill="white"/>
</svg>
