<svg width="93" height="98" viewBox="0 0 93 98" fill="none" xmlns="http://www.w3.org/2000/svg">
<path d="M39.8321 37.2367C34.8522 35.291 30.947 31.8573 28.7584 26.927C28.6304 26.6371 28.5096 26.3442 28.3961 26.0482C28.2823 25.7522 28.1761 25.4536 28.0775 25.1524C27.9787 24.8512 27.8875 24.5478 27.8039 24.2421C27.72 23.9361 27.644 23.6285 27.5756 23.3191C27.507 23.0095 27.4462 22.6984 27.3931 22.3859C27.3402 22.0734 27.295 21.7598 27.2575 21.4452C27.2199 21.1303 27.1902 20.8147 27.1683 20.4985C27.1465 20.1823 27.1326 19.8657 27.1266 19.5487C27.1205 19.2318 27.1222 18.9149 27.1317 18.5982C27.1414 18.2812 27.1589 17.9647 27.1841 17.6488C27.2094 17.3328 27.2425 17.0177 27.2835 16.7033C27.3242 16.389 27.3728 16.0758 27.4293 15.7638C27.4859 15.4521 27.55 15.1418 27.6217 14.8329C27.6935 14.5241 27.7729 14.2174 27.8599 13.9127C27.9469 13.6078 28.0414 13.3053 28.1434 13.0051C28.2456 12.705 28.3551 12.4075 28.4718 12.1129C28.5866 11.8211 28.7087 11.5323 28.8381 11.2463C28.9671 10.9606 29.1031 10.6782 29.2461 10.399C29.3894 10.1199 29.5392 9.84443 29.6956 9.57265C29.8522 9.30113 30.0155 9.03343 30.1853 8.76954C30.3551 8.50591 30.5313 8.2466 30.714 7.99164C30.8964 7.73642 31.085 7.48594 31.2798 7.24018C31.4748 6.99443 31.6756 6.75365 31.8822 6.51788C32.089 6.28211 32.3014 6.05147 32.5193 5.82595C32.7375 5.60043 32.961 5.38042 33.19 5.16594C33.4186 4.95173 33.6526 4.74316 33.8918 4.54025C34.1309 4.33733 34.375 4.14033 34.6239 3.94925C34.8726 3.75842 35.1259 3.57377 35.3841 3.3953C35.6419 3.21683 35.904 3.04481 36.1702 2.87922C36.4367 2.71362 36.7071 2.55473 36.9812 2.40254C37.2554 2.25035 37.5332 2.10487 37.8147 1.96609C38.0959 1.82757 38.3805 1.69601 38.6683 1.57143C38.9566 1.4471 39.248 1.32987 39.5424 1.21974C39.8365 1.10987 40.1331 1.00711 40.4322 0.911434C40.7316 0.816021 41.0331 0.727966 41.3367 0.647274C41.6403 0.566582 41.9455 0.493252 42.2525 0.427277C42.5598 0.361568 42.8684 0.303341 43.1783 0.252613C43.4882 0.201885 43.7992 0.158772 44.1115 0.123287C44.4235 0.0878029 44.7363 0.0599556 45.0499 0.0397148C45.3632 0.0197411 45.6769 0.00725174 45.991 0.0022583C46.3051 -0.00247192 46.619 0.000423431 46.9329 0.0109367C47.2467 0.02145 47.5601 0.0397072 47.8732 0.065731C48.1862 0.0917511 48.4985 0.125267 48.81 0.166271C49.1214 0.207535 49.4316 0.256428 49.7404 0.312939C50.0495 0.369186 50.3571 0.433056 50.663 0.504551C50.9687 0.576042 51.2725 0.6549 51.5746 0.741112C51.8766 0.827324 52.1763 0.921021 52.4739 1.02222C52.7714 1.12315 53.0662 1.23132 53.3582 1.34671C53.651 1.46236 53.9409 1.58524 54.2279 1.71534C54.5147 1.84545 54.7981 1.98252 55.078 2.12656C55.3582 2.2706 55.6346 2.42134 55.9071 2.57878C56.18 2.73649 56.4486 2.90077 56.713 3.07162C56.9777 3.24247 57.2379 3.41975 57.4936 3.60348C57.7494 3.78721 58.0005 3.97698 58.2471 4.1728C58.4936 4.36888 58.7352 4.571 58.9718 4.77917C59.2081 4.98708 59.4392 5.20064 59.6653 5.41985C59.8913 5.63933 60.1118 5.86419 60.3268 6.09444C60.5416 6.32443 60.7507 6.55968 60.9541 6.80018C61.1573 7.04068 61.3546 7.28604 61.5459 7.53627C61.737 7.78649 61.9219 8.04133 62.1006 8.30075C62.2794 8.56018 62.4515 8.82381 62.6171 9.09164C62.783 9.35948 62.942 9.63126 63.0942 9.90698C63.2464 10.1824 63.3918 10.4616 63.5306 10.7444C63.6692 11.0272 63.8006 11.3133 63.9249 11.6027C64.049 11.894 64.1658 12.1881 64.2754 12.4851C64.3853 12.7821 64.4876 13.0816 64.5825 13.3836C64.6774 13.6856 64.7648 13.9899 64.8447 14.2963C64.9246 14.6026 64.9969 14.9106 65.0616 15.2205C65.1265 15.5304 65.1837 15.8417 65.2331 16.1545C65.2825 16.4673 65.3242 16.781 65.3581 17.0956C65.392 17.4105 65.4183 17.7259 65.4369 18.0419C65.4553 18.3578 65.466 18.6741 65.4688 18.9909C65.4717 19.3073 65.4669 19.6238 65.4543 19.9402C65.4414 20.2564 65.4209 20.5723 65.3927 20.8877C65.3643 21.2031 65.3283 21.5176 65.2847 21.8312C65.2411 22.1447 65.1897 22.457 65.1306 22.7679C65.0714 23.0789 65.0047 23.3882 64.9303 23.696C64.8559 24.0038 64.774 24.3095 64.6846 24.6131C64.5953 24.9169 64.4986 25.2183 64.3945 25.5171C64.2901 25.8162 64.1785 26.1125 64.0597 26.4058C63.938 26.7033 63.809 26.9977 63.6726 27.289C63.5359 27.5799 63.3921 27.8673 63.2412 28.1512C63.0906 28.4351 62.9328 28.715 62.7677 28.991C62.6029 29.2673 62.4313 29.539 62.2528 29.8063C62.0746 30.0739 61.8897 30.3368 61.6981 30.5949C61.5065 30.853 61.3086 31.1062 61.1043 31.3546C60.9001 31.603 60.6898 31.846 60.4735 32.0836C60.2572 32.3215 60.0349 32.5537 59.8068 32.7803C59.5789 33.0071 59.3455 33.228 59.1066 33.443C58.8674 33.6581 58.6231 33.8669 58.3736 34.0695C58.1242 34.2724 57.8699 34.4689 57.6108 34.659C57.3513 34.849 57.0874 35.0325 56.8191 35.2094C56.5507 35.3862 56.278 35.5564 56.001 35.7199C55.7239 35.8831 55.4431 36.0394 55.1584 36.1887C54.8735 36.3377 54.5852 36.4797 54.2934 36.6145C54.0016 36.7494 53.7066 36.8768 53.4083 36.997C53.1909 37.0866 52.973 37.1746 52.7546 37.2611C48.3518 38.6615 44.2254 38.6564 39.8321 37.2367Z" fill="white"/>
<path fill-rule="evenodd" clip-rule="evenodd" d="M11.8135 19.2045H11.8128C7.8845 19.179 3.95189 19.1535 0.0330124 19.2427L0.0562668 61.5218C0.0561371 63.5583 0.0421562 65.5981 0.0281677 67.6388C-0.000843048 71.8709 -0.0298843 76.1073 0.0645485 80.329L11.1237 91.3917C11.6985 91.9667 12.2704 92.5539 12.844 93.1428C14.1712 94.5056 15.5073 95.8776 16.9099 97.1283C17.3878 94.6427 17.2985 90.5554 17.224 87.1461C17.1997 86.0322 17.1769 84.9906 17.1761 84.1009C17.1732 81.2226 17.1538 78.3401 17.1344 75.4561C17.1344 75.4555 17.1344 75.455 17.1344 75.4545C17.0891 68.7219 17.0437 61.9809 17.2088 55.2655C27.4656 63.3732 39.5845 66.637 52.546 65.1277C52.6861 65.1119 52.8259 65.0945 52.9655 65.0753C60.2645 63.8392 66.5101 61.4106 72.6728 57.3205C74.6486 55.9329 76.5156 54.4118 78.2738 52.7572C87.8268 43.7475 92.2292 32.1683 92.6471 19.2337C88.7855 19.1663 84.9133 19.187 81.044 19.2077C81.0433 19.2077 81.0426 19.2077 81.0419 19.2077C79.1802 19.2177 77.3191 19.2276 75.4603 19.2277C75.3105 21.8528 75.0775 24.4202 74.3729 26.9628C72.2076 34.778 67.0944 40.882 60.0981 44.8648C54.4146 48.1004 39.3464 48.6918 32.5441 44.8731C25.611 40.9809 20.4863 34.8958 18.2942 27.197C17.5475 24.5736 17.2703 21.945 17.1524 19.2285C15.375 19.2277 13.595 19.2161 11.8143 19.2046L11.8135 19.2045Z" fill="white"/>
<path fill-rule="evenodd" clip-rule="evenodd" d="M39.8321 37.2367C34.8522 35.291 30.947 31.8573 28.7584 26.927C28.6304 26.6371 28.5096 26.3442 28.3961 26.0482C28.2823 25.7522 28.1761 25.4536 28.0775 25.1524C27.9787 24.8512 27.8875 24.5478 27.8039 24.2421C27.72 23.9361 27.644 23.6285 27.5756 23.3191C27.507 23.0095 27.4462 22.6984 27.3931 22.3859C27.3402 22.0734 27.295 21.7598 27.2575 21.4452C27.2199 21.1303 27.1902 20.8147 27.1683 20.4985C27.1465 20.1823 27.1326 19.8657 27.1266 19.5487C27.1205 19.2318 27.1222 18.9149 27.1317 18.5982C27.1414 18.2812 27.1589 17.9647 27.1841 17.6488C27.2094 17.3328 27.2425 17.0177 27.2835 16.7033C27.3242 16.389 27.3728 16.0758 27.4293 15.7638C27.4859 15.4521 27.55 15.1418 27.6217 14.8329C27.6935 14.5241 27.7729 14.2174 27.8599 13.9127C27.9469 13.6078 28.0414 13.3053 28.1434 13.0051C28.2456 12.705 28.3551 12.4075 28.4718 12.1129C28.5866 11.8211 28.7087 11.5323 28.8381 11.2463C28.9671 10.9606 29.1031 10.6782 29.2461 10.399C29.3894 10.1199 29.5392 9.84443 29.6956 9.57265C29.8522 9.30113 30.0155 9.03343 30.1853 8.76954C30.3551 8.50591 30.5313 8.2466 30.714 7.99164C30.8964 7.73642 31.085 7.48594 31.2798 7.24018C31.4748 6.99443 31.6756 6.75365 31.8822 6.51788C32.089 6.28211 32.3014 6.05147 32.5193 5.82595C32.7375 5.60043 32.961 5.38042 33.19 5.16594C33.4186 4.95173 33.6526 4.74316 33.8918 4.54025C34.1309 4.33733 34.375 4.14033 34.6239 3.94925C34.8726 3.75842 35.1259 3.57377 35.3841 3.3953C35.6419 3.21683 35.904 3.04481 36.1702 2.87922C36.4367 2.71362 36.7071 2.55473 36.9812 2.40254C37.2554 2.25035 37.5332 2.10487 37.8147 1.96609C38.0959 1.82757 38.3805 1.69601 38.6683 1.57143C38.9566 1.4471 39.248 1.32987 39.5424 1.21974C39.8365 1.10987 40.1331 1.00711 40.4322 0.911434C40.7316 0.816021 41.0331 0.727966 41.3367 0.647274C41.6403 0.566582 41.9455 0.493252 42.2525 0.427277C42.5598 0.361568 42.8684 0.303341 43.1783 0.252613C43.4882 0.201885 43.7992 0.158772 44.1115 0.123287C44.4235 0.0878029 44.7363 0.0599556 45.0499 0.0397148C45.3632 0.0197411 45.6769 0.00725174 45.991 0.0022583C46.3051 -0.00247192 46.619 0.000423431 46.9329 0.0109367C47.2467 0.02145 47.5601 0.0397072 47.8732 0.065731C48.1862 0.0917511 48.4985 0.125267 48.81 0.166271C49.1214 0.207535 49.4316 0.256428 49.7404 0.312939C50.0495 0.369186 50.3571 0.433056 50.663 0.504551C50.9687 0.576042 51.2725 0.6549 51.5746 0.741112C51.8766 0.827324 52.1763 0.921021 52.4739 1.02222C52.7714 1.12315 53.0662 1.23132 53.3582 1.34671C53.651 1.46236 53.9409 1.58524 54.2279 1.71534C54.5147 1.84545 54.7981 1.98252 55.078 2.12656C55.3582 2.2706 55.6346 2.42134 55.9071 2.57878C56.18 2.73649 56.4486 2.90077 56.713 3.07162C56.9777 3.24247 57.2379 3.41975 57.4936 3.60348C57.7494 3.78721 58.0005 3.97698 58.2471 4.1728C58.4936 4.36888 58.7352 4.571 58.9718 4.77917C59.2081 4.98708 59.4392 5.20064 59.6653 5.41985C59.8913 5.63933 60.1118 5.86419 60.3268 6.09444C60.5416 6.32443 60.7507 6.55968 60.9541 6.80018C61.1573 7.04068 61.3546 7.28604 61.5459 7.53627C61.737 7.78649 61.9219 8.04133 62.1006 8.30075C62.2794 8.56018 62.4515 8.82381 62.6171 9.09164C62.783 9.35948 62.942 9.63126 63.0942 9.90698C63.2464 10.1824 63.3918 10.4616 63.5306 10.7444C63.6692 11.0272 63.8006 11.3133 63.9249 11.6027C64.049 11.894 64.1658 12.1881 64.2754 12.4851C64.3853 12.7821 64.4876 13.0816 64.5825 13.3836C64.6774 13.6856 64.7648 13.9899 64.8447 14.2963C64.9246 14.6026 64.9969 14.9106 65.0616 15.2205C65.1265 15.5304 65.1837 15.8417 65.2331 16.1545C65.2825 16.4673 65.3242 16.781 65.3581 17.0956C65.392 17.4105 65.4183 17.7259 65.4369 18.0419C65.4553 18.3578 65.466 18.6741 65.4688 18.9909C65.4717 19.3073 65.4669 19.6238 65.4543 19.9402C65.4414 20.2564 65.4209 20.5723 65.3927 20.8877C65.3643 21.2031 65.3283 21.5176 65.2847 21.8312C65.2411 22.1447 65.1897 22.457 65.1306 22.7679C65.0714 23.0789 65.0047 23.3882 64.9303 23.696C64.8559 24.0038 64.774 24.3095 64.6846 24.6131C64.5953 24.9169 64.4986 25.2183 64.3945 25.5171C64.2901 25.8162 64.1785 26.1125 64.0597 26.4058C63.938 26.7033 63.809 26.9977 63.6726 27.289C63.5359 27.5799 63.3921 27.8673 63.2412 28.1512C63.0906 28.4351 62.9328 28.715 62.7677 28.991C62.6029 29.2673 62.4313 29.539 62.2528 29.8063C62.0746 30.0739 61.8897 30.3368 61.6981 30.5949C61.5065 30.853 61.3086 31.1062 61.1043 31.3546C60.9001 31.603 60.6898 31.846 60.4735 32.0836C60.2572 32.3215 60.0349 32.5537 59.8068 32.7803C59.5789 33.0071 59.3455 33.228 59.1066 33.443C58.8674 33.6581 58.6231 33.8669 58.3736 34.0695C58.1242 34.2724 57.8699 34.4689 57.6108 34.659C57.3513 34.849 57.0874 35.0325 56.8191 35.2094C56.5507 35.3862 56.278 35.5564 56.001 35.7199C55.7239 35.8831 55.4431 36.0394 55.1584 36.1887C54.8735 36.3377 54.5852 36.4797 54.2934 36.6145C54.0016 36.7494 53.7066 36.8768 53.4083 36.997C53.1909 37.0866 52.973 37.1746 52.7546 37.2611C48.3518 38.6615 44.2254 38.6564 39.8321 37.2367ZM32.5441 44.8731C25.611 40.9809 20.4863 34.8958 18.2942 27.197C17.5475 24.5736 17.2703 21.945 17.1524 19.2285C15.375 19.2277 13.595 19.2161 11.8143 19.2046L11.8135 19.2045H11.8128C7.8845 19.179 3.95189 19.1535 0.0330124 19.2427L0.0562668 61.5218C0.0561371 63.5583 0.0421562 65.5981 0.0281677 67.6388C-0.000843048 71.8709 -0.0298843 76.1073 0.0645485 80.329L11.1237 91.3917C11.6985 91.9667 12.2704 92.5539 12.844 93.1428C14.1712 94.5056 15.5073 95.8776 16.9099 97.1283C17.3878 94.6427 17.2985 90.5554 17.224 87.1461C17.1997 86.0322 17.1769 84.9906 17.1761 84.1009C17.1732 81.2226 17.1538 78.3401 17.1344 75.4561L17.1344 75.4545C17.0891 68.7219 17.0437 61.9809 17.2088 55.2655C27.4656 63.3732 39.5845 66.637 52.546 65.1277C52.6861 65.1119 52.8259 65.0945 52.9655 65.0753C60.2645 63.8392 66.5101 61.4106 72.6728 57.3205C74.6486 55.9329 76.5156 54.4118 78.2738 52.7572C87.8268 43.7475 92.2292 32.1683 92.6471 19.2337C88.7855 19.1663 84.9133 19.187 81.044 19.2077L81.0419 19.2077C79.1802 19.2177 77.3191 19.2276 75.4603 19.2277C75.3105 21.8528 75.0775 24.4202 74.3729 26.9628C72.2076 34.778 67.0944 40.882 60.0981 44.8648C54.4146 48.1004 39.3464 48.6918 32.5441 44.8731Z" fill="white"/>
</svg>
