<svg width="24" height="24" viewBox="0 0 24 24" fill="none" xmlns="http://www.w3.org/2000/svg">
<path d="M11.917 21.5801C12.5127 21.5803 13 22.0683 13 22.6641C12.9998 23.2596 12.5125 23.7898 11.917 23.79C11.3212 23.79 10.833 23.3458 10.833 22.75V22.6641C10.833 22.0682 11.3212 21.5801 11.917 21.5801ZM3.55371 18.7529C3.97622 18.3306 4.6586 18.3305 5.08105 18.7529C5.50335 19.1754 5.50336 19.8578 5.08105 20.2803L4.94043 20.4209C4.7346 20.6267 4.45247 20.7354 4.18164 20.7354C3.89998 20.7353 3.62877 20.6267 3.41211 20.4209C2.98999 19.9984 2.98986 19.316 3.41211 18.8936L3.55371 18.7529ZM18.7412 18.7529C19.1637 18.3304 19.847 18.3304 20.2695 18.7529L20.4102 18.8936C20.8326 19.316 20.8324 19.9984 20.4102 20.4209C20.2043 20.6267 19.933 20.7354 19.6514 20.7354C19.3698 20.7353 19.0994 20.6266 18.8828 20.4209L18.7412 20.2803C18.3191 19.8578 18.3191 19.1754 18.7412 18.7529ZM11.917 4.33398C16.1051 4.33407 19.5 7.72889 19.5 11.917C19.5 16.1051 16.1051 19.4999 11.917 19.5C7.72884 19.5 4.33399 16.1051 4.33398 11.917C4.33398 7.72883 7.72883 4.33398 11.917 4.33398ZM1.08301 10.834C1.67884 10.834 2.20995 11.3212 2.20996 11.917C2.20996 12.5128 1.76576 13 1.16992 13H1.08301C0.487322 12.9998 0 12.5127 0 11.917C5.78597e-06 11.3213 0.487326 10.8342 1.08301 10.834ZM22.6631 10.834C23.2589 10.834 23.79 11.3212 23.79 11.917C23.79 12.5128 23.3458 13 22.75 13H22.6631C22.0674 12.9999 21.5801 12.5127 21.5801 11.917C21.5801 11.3212 22.0674 10.8341 22.6631 10.834ZM3.41211 3.41309C3.83461 2.99059 4.51793 2.99059 4.94043 3.41309L5.08105 3.55371C5.50337 3.97617 5.50334 4.65859 5.08105 5.08105C4.87522 5.29772 4.5931 5.40625 4.32227 5.40625C4.04072 5.40619 3.7703 5.29751 3.55371 5.0918L3.41211 4.94043C2.98986 4.51802 2.98998 3.83556 3.41211 3.41309ZM18.8828 3.42383C19.3053 3.0014 19.9877 3.00135 20.4102 3.42383C20.8325 3.84631 20.8325 4.52872 20.4102 4.95117L20.2695 5.0918C20.0637 5.29763 19.7924 5.40625 19.5107 5.40625C19.2291 5.40623 18.9579 5.29761 18.7412 5.0918C18.3191 4.66934 18.319 3.98686 18.7412 3.56445L18.8828 3.42383ZM11.917 0C12.5127 0.000177225 13 0.488259 13 1.08398C12.9998 1.67958 12.5126 2.20977 11.917 2.20996C11.3212 2.20996 10.833 1.76576 10.833 1.16992V1.08398C10.833 0.488151 11.3212 0 11.917 0Z" fill="white" fill-opacity="0.1"/>
<path d="M11.917 21.5801C12.5127 21.5803 13 22.0683 13 22.6641C12.9998 23.2596 12.5125 23.7898 11.917 23.79C11.3212 23.79 10.833 23.3458 10.833 22.75V22.6641C10.833 22.0682 11.3212 21.5801 11.917 21.5801ZM3.55371 18.7529C3.97622 18.3306 4.6586 18.3305 5.08105 18.7529C5.50335 19.1754 5.50336 19.8578 5.08105 20.2803L4.94043 20.4209C4.7346 20.6267 4.45247 20.7354 4.18164 20.7354C3.89998 20.7353 3.62877 20.6267 3.41211 20.4209C2.98999 19.9984 2.98986 19.316 3.41211 18.8936L3.55371 18.7529ZM18.7412 18.7529C19.1637 18.3304 19.847 18.3304 20.2695 18.7529L20.4102 18.8936C20.8326 19.316 20.8324 19.9984 20.4102 20.4209C20.2043 20.6267 19.933 20.7354 19.6514 20.7354C19.3698 20.7353 19.0994 20.6266 18.8828 20.4209L18.7412 20.2803C18.3191 19.8578 18.3191 19.1754 18.7412 18.7529ZM11.917 4.33398C16.1051 4.33407 19.5 7.72889 19.5 11.917C19.5 16.1051 16.1051 19.4999 11.917 19.5C7.72884 19.5 4.33399 16.1051 4.33398 11.917C4.33398 7.72883 7.72883 4.33398 11.917 4.33398ZM1.08301 10.834C1.67884 10.834 2.20995 11.3212 2.20996 11.917C2.20996 12.5128 1.76576 13 1.16992 13H1.08301C0.487322 12.9998 0 12.5127 0 11.917C5.78597e-06 11.3213 0.487326 10.8342 1.08301 10.834ZM22.6631 10.834C23.2589 10.834 23.79 11.3212 23.79 11.917C23.79 12.5128 23.3458 13 22.75 13H22.6631C22.0674 12.9999 21.5801 12.5127 21.5801 11.917C21.5801 11.3212 22.0674 10.8341 22.6631 10.834ZM3.41211 3.41309C3.83461 2.99059 4.51793 2.99059 4.94043 3.41309L5.08105 3.55371C5.50337 3.97617 5.50334 4.65859 5.08105 5.08105C4.87522 5.29772 4.5931 5.40625 4.32227 5.40625C4.04072 5.40619 3.7703 5.29751 3.55371 5.0918L3.41211 4.94043C2.98986 4.51802 2.98998 3.83556 3.41211 3.41309ZM18.8828 3.42383C19.3053 3.0014 19.9877 3.00135 20.4102 3.42383C20.8325 3.84631 20.8325 4.52872 20.4102 4.95117L20.2695 5.0918C20.0637 5.29763 19.7924 5.40625 19.5107 5.40625C19.2291 5.40623 18.9579 5.29761 18.7412 5.0918C18.3191 4.66934 18.319 3.98686 18.7412 3.56445L18.8828 3.42383ZM11.917 0C12.5127 0.000177225 13 0.488259 13 1.08398C12.9998 1.67958 12.5126 2.20977 11.917 2.20996C11.3212 2.20996 10.833 1.76576 10.833 1.16992V1.08398C10.833 0.488151 11.3212 0 11.917 0Z" fill="url(#paint0_linear_2004_730)"/>
<defs>
<linearGradient id="paint0_linear_2004_730" x1="5.23381" y1="2.379" x2="21.411" y2="23.79" gradientUnits="userSpaceOnUse">
<stop stop-color="#FFB2EB"/>
<stop offset="1" stop-color="#FF51D3"/>
</linearGradient>
</defs>
</svg>
